<svg xmlns="http://www.w3.org/2000/svg" viewBox="0 0 121.8 16.35"><defs><style>.cls-1{fill:none;stroke:#707070;stroke-linecap:round;stroke-linejoin:round;}.cls-2{fill:#9d9393;}</style></defs><g id="レイヤー_2" data-name="レイヤー 2"><g id="レイヤー_1-2" data-name="レイヤー 1"><g id="レイヤー_2-2" data-name="レイヤー 2"><g id="レイヤー_1-2-2" data-name="レイヤー 1-2"><polyline class="cls-1" points="15.47 0.88 0.5 15.85 121.3 15.85"/></g></g><path class="cls-2" d="M63.05,8.74,66.35.15h1.22l3.52,8.59h-1.3l-1-2.61H65.2l-.94,2.61Zm2.48-3.53h2.91l-.9-2.38c-.27-.72-.47-1.32-.61-1.78a9.79,9.79,0,0,1-.46,1.64Z"/><path class="cls-2" d="M74.17,8.74V.15H78a5,5,0,0,1,1.75.23,1.8,1.8,0,0,1,1,.82A2.41,2.41,0,0,1,81,2.49,2.18,2.18,0,0,1,80.45,4a3,3,0,0,1-1.83.8,3,3,0,0,1,.69.43,5.83,5.83,0,0,1,.94,1.14l1.5,2.34H80.32L79.18,7c-.33-.52-.61-.91-.82-1.18a2.61,2.61,0,0,0-.58-.58A1.84,1.84,0,0,0,77.26,5a4.26,4.26,0,0,0-.63,0H75.31V8.74Zm1.14-4.8h2.44A3.87,3.87,0,0,0,79,3.78a1.27,1.27,0,0,0,.67-.52,1.42,1.42,0,0,0,.23-.77,1.28,1.28,0,0,0-.44-1A2.09,2.09,0,0,0,78,1.1H75.31Z"/><path class="cls-2" d="M87,8.74V1.16H84.12v-1h6.81v1H88.09V8.74Z"/><path class="cls-2" d="M94.45,8.74V.15h1.14V8.74Z"/><path class="cls-2" d="M99.36,6l1.08-.1a2.29,2.29,0,0,0,.35,1.06,1.92,1.92,0,0,0,.86.67,3.27,3.27,0,0,0,1.32.25,3.12,3.12,0,0,0,1.15-.19,1.63,1.63,0,0,0,.74-.53,1.24,1.24,0,0,0,.25-.74,1.08,1.08,0,0,0-.24-.7,1.78,1.78,0,0,0-.77-.51,15,15,0,0,0-1.53-.42,8.53,8.53,0,0,1-1.66-.53,2.44,2.44,0,0,1-.92-.8,2,2,0,0,1-.3-1.07,2.16,2.16,0,0,1,.37-1.22,2.34,2.34,0,0,1,1.08-.86A4.18,4.18,0,0,1,102.71,0a4.25,4.25,0,0,1,1.69.31,2.35,2.35,0,0,1,1.12.9,2.63,2.63,0,0,1,.42,1.36l-1.09.08a1.76,1.76,0,0,0-.59-1.23,2.31,2.31,0,0,0-1.5-.42,2.39,2.39,0,0,0-1.5.38,1.12,1.12,0,0,0-.47.91,1,1,0,0,0,.33.76,4.5,4.5,0,0,0,1.71.62,11.44,11.44,0,0,1,1.91.54,2.56,2.56,0,0,1,1.1.88,2.11,2.11,0,0,1,.36,1.22,2.32,2.32,0,0,1-.39,1.29,2.59,2.59,0,0,1-1.13,1,4,4,0,0,1-1.65.33,4.92,4.92,0,0,1-2-.34,2.7,2.7,0,0,1-1.24-1A3,3,0,0,1,99.36,6Z"/><path class="cls-2" d="M112.1,8.74V1.16h-2.83v-1h6.81v1h-2.84V8.74Z"/></g></g></svg>