<svg xmlns="http://www.w3.org/2000/svg" viewBox="0 0 503.84 503.88"><defs><style>.cls-1{fill:#fff;}</style></defs><title>icon_ig_white</title><g id="レイヤー_2" data-name="レイヤー 2"><g id="レイヤー_1-2" data-name="レイヤー 1"><g id="Logo"><path class="cls-1" d="M251.92,45.43c67.27,0,75.23.26,101.8,1.47,24.56,1.12,37.9,5.22,46.78,8.67a77.94,77.94,0,0,1,29,18.85,77.94,77.94,0,0,1,18.85,29c3.45,8.88,7.55,22.22,8.67,46.78,1.21,26.57,1.47,34.53,1.47,101.8s-.26,75.23-1.47,101.8c-1.12,24.56-5.22,37.9-8.67,46.78a83.51,83.51,0,0,1-47.81,47.81c-8.88,3.45-22.22,7.55-46.78,8.67-26.56,1.21-34.53,1.47-101.8,1.47s-75.24-.26-101.8-1.47c-24.56-1.12-37.9-5.22-46.78-8.67a77.94,77.94,0,0,1-29-18.85,77.94,77.94,0,0,1-18.85-29c-3.45-8.88-7.55-22.22-8.67-46.78-1.21-26.57-1.47-34.53-1.47-101.8s.26-75.23,1.47-101.8c1.12-24.56,5.22-37.9,8.67-46.78a77.94,77.94,0,0,1,18.85-29,77.94,77.94,0,0,1,29-18.85c8.88-3.45,22.22-7.55,46.78-8.67,26.57-1.21,34.53-1.47,101.8-1.47M252,0c-68.42,0-77,.29-103.87,1.52S102.93,7,86.9,13.27A123.43,123.43,0,0,0,42.28,42.32a123.61,123.61,0,0,0-29,44.62C7,103,2.74,121.28,1.52,148.09S0,183.54,0,252s.29,77,1.52,103.87S7,401,13.23,417A123.43,123.43,0,0,0,42.28,461.6,123.67,123.67,0,0,0,86.9,490.66c16,6.22,34.34,10.48,61.15,11.71s35.45,1.51,103.87,1.51,77-.29,103.87-1.51,45.12-5.49,61.15-11.71A128.83,128.83,0,0,0,490.62,417c6.22-16,10.48-34.34,11.71-61.15s1.51-35.45,1.51-103.87-.29-77-1.51-103.87S496.84,103,490.62,86.94a123.67,123.67,0,0,0-29.06-44.62,123.61,123.61,0,0,0-44.62-29C400.91,7,382.6,2.78,355.79,1.56S320.34,0,251.92,0Z"/><path class="cls-1" d="M251.92,122.6A129.37,129.37,0,1,0,381.29,252h0A129.35,129.35,0,0,0,252,122.6Zm0,213.33a84,84,0,1,1,84-84h0A84,84,0,0,1,251.92,335.93Z"/><circle class="cls-1" cx="386.4" cy="117.48" r="30.23"/></g></g></g></svg>