<?xml version="1.0" encoding="utf-8"?>
<!-- Generator: Adobe Illustrator 16.0.3, SVG Export Plug-In . SVG Version: 6.00 Build 0)  -->
<!DOCTYPE svg PUBLIC "-//W3C//DTD SVG 1.1//EN" "http://www.w3.org/Graphics/SVG/1.1/DTD/svg11.dtd">
<svg version="1.1" id="Layer_1" xmlns="http://www.w3.org/2000/svg" xmlns:xlink="http://www.w3.org/1999/xlink" x="0px" y="0px"
	 width="1000px" height="1000px" viewBox="0 0 1000 1000" enable-background="new 0 0 1000 1000" xml:space="preserve">
<g>
	<g>
		<path fill-rule="evenodd" clip-rule="evenodd" d="M670.846,389.737c-8.258,0-16.315,0-24.658,0c0-16.446,0-32.795,0-49.435
			c-16.63,0-32.977,0-49.436,0c0-8.402,0-16.509,0-24.734c24.748,0,49.345,0,74.094,0
			C670.846,340.292,670.846,364.887,670.846,389.737z"/>
		<path fill-rule="evenodd" clip-rule="evenodd" d="M321.4,340.289c0,16.596,0,32.89,0,49.541
			c-8.31,0.019-16.413,0.006-24.658,0.009c0-24.838,0-49.442,0-74.222c24.627,0,49.228,0,73.843,0
			c0.517,1.592,0.712,20.077,0.207,24.588c-2.622,0.183-5.313,0.057-7.995,0.08c-2.72,0.022-5.439,0.005-8.159,0.005
			c-2.8,0-5.6,0-8.4,0c-2.72,0-5.439,0-8.159,0s-5.44,0-8.16,0C327.206,340.289,324.492,340.289,321.4,340.289z"/>
		<path fill-rule="evenodd" clip-rule="evenodd" d="M646.116,612.686c8.391,0,16.439,0,24.477,0
			c0.503,1.734,0.618,71.344,0.109,74.139c-24.574,0-49.174,0-73.938,0c0-8.153,0-16.252,0-24.646c16.479,0,32.833,0,49.352,0
			C646.116,645.581,646.116,629.278,646.116,612.686z"/>
		<path fill-rule="evenodd" clip-rule="evenodd" d="M321.298,662.226c16.749,0,33.042,0,49.661,0
			c0.084,8.233,0.015,16.268,0.043,24.255c-1.787,0.579-70.084,0.792-74.243,0.257c0-24.63,0-49.281,0-74.05
			c8.181,0,16.217,0,24.539,0C321.298,629.159,321.298,645.508,321.298,662.226z"/>
		<path fill-rule="evenodd" clip-rule="evenodd" d="M543.341,669.053c0.073,1.591,0.198,3.182,0.209,4.772
			c0.029,4.231,0.01,8.464,0.01,12.593c-0.172,0.162-0.228,0.217-0.286,0.268c-0.06,0.054-0.116,0.139-0.184,0.149
			c-0.313,0.051-0.63,0.114-0.946,0.114c-40.355-0.001-80.711-0.008-121.066-0.021c-0.225,0-0.449-0.115-1.011-0.271
			c0-5.816,0-11.701,0-17.587l-0.061,0.074c0.955,0.046,1.91,0.134,2.865,0.134c39.231,0.007,78.462,0.007,117.694,0
			c0.955,0,1.91-0.084,2.865-0.129L543.341,669.053z"/>
		<path fill-rule="evenodd" clip-rule="evenodd" d="M649.456,440.205c2.069-0.069,4.138-0.175,6.208-0.199
			c2.957-0.035,5.914-0.017,8.871-0.003c0.778,0.003,1.556,0.071,2.474,0.117c0,41.131,0,82.08,0,123.366
			c-5.938,0-11.745,0-17.553,0l0.06,0.07c-0.031-0.957-0.089-1.914-0.09-2.871c-0.004-39.226-0.004-78.452,0-117.678
			c0-0.957,0.058-1.914,0.089-2.871L649.456,440.205z"/>
		<path fill-rule="evenodd" clip-rule="evenodd" d="M314.491,563.493c-5.822,0-11.644,0-17.4,0
			c-0.591-1.861-0.734-120.344-0.192-123.308c0.258-0.051,0.556-0.161,0.855-0.162c5.113-0.014,10.227-0.021,15.34-0.009
			c0.472,0.001,0.943,0.133,1.415,0.205l-0.098-0.089c-0.045,0.875-0.129,1.75-0.129,2.625c-0.006,39.311-0.006,78.623,0,117.934
			c0,0.955,0.087,1.91,0.134,2.865L314.491,563.493z"/>
		<path fill-rule="evenodd" clip-rule="evenodd" d="M420.074,334.103c0-5.809,0-11.617,0-17.554c41.279,0,82.235,0,123.115,0
			c0.15,0.285,0.288,0.423,0.287,0.561c-0.032,5.665-0.078,11.329-0.121,16.994l0.069-0.058c-0.957,0.032-1.914,0.09-2.871,0.091
			c-39.227,0.004-78.453,0.004-117.68,0c-0.957,0-1.914-0.061-2.871-0.093L420.074,334.103z"/>
		<path fill-rule="evenodd" clip-rule="evenodd" d="M543.355,334.103c11.732,0,23.466,0,35.533,0c0,6.152,0,11.963,0,17.775
			l0.066-0.068c-11.703-0.014-23.405-0.028-35.392-0.042c0-1.169,0.007-2.028-0.001-2.885c-0.044-4.946-0.092-9.892-0.138-14.837
			L543.355,334.103z"/>
		<path fill-rule="evenodd" clip-rule="evenodd" d="M631.683,404.672c5.813,0,11.625,0,17.773,0c0,12.069,0,23.802,0,35.533
			l0.059-0.069c-0.875-0.046-1.75-0.13-2.624-0.133c-4.151-0.014-8.303,0.002-12.454-0.014c-0.843-0.003-1.685-0.099-2.687-0.162
			c0-11.925,0-23.574,0-35.222L631.683,404.672z"/>
		<path fill-rule="evenodd" clip-rule="evenodd" d="M385.056,351.886c-0.072-1.91-0.186-3.821-0.207-5.732
			c-0.035-3.118-0.009-6.237-0.009-9.355c0-0.778,0-1.556,0-2.625c11.938-0.023,23.586-0.047,35.235-0.07l-0.071-0.06
			c0.399,6.905,0.209,15.896-0.445,17.764c-11.478,0-23.032,0-34.585,0L385.056,351.886z"/>
		<path fill-rule="evenodd" clip-rule="evenodd" d="M649.456,563.485c0,11.584,0,23.167,0,34.847
			c-0.62,0.157-1.058,0.362-1.496,0.364c-5.118,0.021-10.235,0.014-15.353-0.001c-0.312-0.001-0.622-0.124-0.933-0.19l0.078,0.082
			c0-11.614,0-23.229,0-35.031c6.158,0,11.961,0,17.763,0L649.456,563.485z"/>
		<path fill-rule="evenodd" clip-rule="evenodd" d="M314.508,440.22c-0.076-0.791-0.218-1.582-0.219-2.372
			c-0.015-10.232-0.012-20.464-0.005-30.695c0-0.703,0.071-1.406,0.126-2.429c5.861-0.016,11.587-0.032,17.314-0.047l-0.05-0.073
			c0.073,0.63,0.208,1.259,0.208,1.888c0.013,10.454,0.011,20.908,0.001,31.362c0,0.615-0.103,1.231-0.184,2.144
			c-1.063,0-2-0.007-2.937,0.001c-4.784,0.042-9.568,0.088-14.353,0.133L314.508,440.22z"/>
		<path fill-rule="evenodd" clip-rule="evenodd" d="M578.885,651.835c0,5.662,0,11.324,0,17.148
			c-0.791,0.117-1.392,0.283-1.993,0.284c-10.552,0.016-21.104,0.016-31.656,0.002c-0.632,0-1.263-0.141-1.895-0.217l0.089,0.097
			c0.074-5.72,0.148-11.439,0.225-17.354c0.978-0.049,1.754-0.122,2.531-0.122c10.135-0.008,20.27-0.01,30.405,0.004
			c0.789,0.001,1.578,0.136,2.367,0.208L578.885,651.835z"/>
		<path fill-rule="evenodd" clip-rule="evenodd" d="M420.066,669.07c-0.71,0.07-1.421,0.2-2.131,0.201
			c-10.227,0.013-20.454,0.012-30.68,0.002c-0.698-0.001-1.396-0.098-2.154-0.155c-0.101-0.418-0.233-0.715-0.234-1.013
			c-0.014-5.112-0.014-10.226-0.004-15.339c0.001-0.312,0.114-0.624,0.175-0.936l-0.059,0.043c0.31-0.063,0.62-0.184,0.93-0.184
			c10.842-0.012,21.683-0.018,32.525,0c0.515,0.001,1.029,0.219,1.57,0.342c0,5.809,0,11.46,0,17.112L420.066,669.07z"/>
		<path fill-rule="evenodd" clip-rule="evenodd" d="M331.729,598.522c-2.308,0.065-4.616,0.161-6.925,0.19
			c-2.636,0.033-5.273,0.019-7.91,0.001c-0.774-0.005-1.548-0.09-2.432-0.144c-0.072-0.713-0.174-1.25-0.174-1.788
			c-0.009-10.546-0.01-21.093,0.001-31.639c0.001-0.551,0.131-1.101,0.202-1.651c0,0.001-0.075,0.063-0.075,0.063
			c7.437-0.412,15.608-0.225,17.367,0.421c0.034,0.442,0.102,0.914,0.102,1.385c0.007,10.524,0.009,21.048-0.001,31.571
			c-0.001,0.55-0.128,1.099-0.196,1.647L331.729,598.522z"/>
		<path fill-rule="evenodd" clip-rule="evenodd" d="M716.278,549.246c0,1.389-0.084,2.667,0.023,3.929
			c0.11,1.298-0.396,2.024-1.52,2.657c-3.761,2.116-7.464,4.337-11.182,6.528c-0.59,0.348-1.146,0.751-1.631,1.547
			c4.651,0,9.303,0,14.127,0c0,2.063,0,3.856,0,5.645c-1.701,0.546-22.708,0.689-25.84,0.123c-0.012-1.574-0.161-3.233,0.032-4.853
			c0.072-0.604,0.851-1.267,1.466-1.641c3.621-2.199,7.29-4.317,10.938-6.472c0.674-0.397,1.323-0.837,1.932-1.712
			c-4.708,0-9.415,0-14.267,0c0-2.144,0-3.941,0-5.719C692.251,548.771,713.665,548.705,716.278,549.246z"/>
		<path fill-rule="evenodd" clip-rule="evenodd" d="M690.404,327.445c2.371-0.495,23.808-0.436,25.866,0.108
			c0,1.522-0.038,3.109,0.013,4.694c0.033,1.035-0.73,1.337-1.404,1.735c-3.787,2.232-7.583,4.451-11.373,6.678
			c-0.54,0.318-1.068,0.656-1.55,1.449c2.311,0.017,4.621,0.041,6.933,0.05c2.312,0.008,4.623,0.001,6.999,0.001
			c0.723,2.001,0.267,3.876,0.341,5.91c-8.718,0-17.231,0-26.019,0c0-1.727,0.028-3.308-0.01-4.887
			c-0.023-1.027,0.758-1.32,1.431-1.717c3.717-2.195,7.442-4.375,11.158-6.571c0.652-0.386,1.273-0.825,1.791-1.666
			c-4.659,0-9.319,0-14.176,0C690.404,331.194,690.404,329.405,690.404,327.445z"/>
		<path fill-rule="evenodd" clip-rule="evenodd" d="M701.998,446.77c4.602,0,9.203,0,13.734,0c0.658,1.772,0.721,3.215,0.248,6.088
			c-8.451,0.042-16.96,0.026-25.772,0.009c0-1.863,0.031-3.439-0.011-5.014c-0.027-1.021,0.727-1.333,1.406-1.734
			c3.719-2.191,7.443-4.373,11.159-6.569c0.659-0.39,1.288-0.831,1.829-1.655c-4.656,0-9.312,0-13.997,0
			c-0.698-2.091-0.289-3.957-0.329-5.963c8.734,0,17.247,0,26.006,0c0,1.755-0.04,3.342,0.015,4.925
			c0.035,1.027-0.698,1.352-1.379,1.752c-3.79,2.229-7.585,4.449-11.377,6.673c-0.542,0.318-1.079,0.642-1.619,0.962
			C701.94,446.42,701.969,446.595,701.998,446.77z"/>
		<path fill-rule="evenodd" clip-rule="evenodd" d="M451.606,727.434c-2.728,0.265-4.787,0.256-6.816,0.053
			c-0.522-0.053-1.051-0.885-1.422-1.459c-1.776-2.745-3.5-5.524-5.239-8.288c-1.221,0-2.328,0-3.685,0
			c-0.608,3.131,0.067,6.332-0.39,9.386c-1.945,0.62-3.672,0.638-5.782,0.065c0-8.469,0-16.972,0-25.387
			c0.284-0.173,0.418-0.328,0.552-0.327c4.945,0.045,9.904-0.101,14.831,0.227c3.726,0.248,5.4,2.068,5.838,5.806
			c0.208,1.784,0.015,3.663-0.294,5.447c-0.367,2.116-2.008,3.359-3.97,4.425C447.282,720.617,449.276,723.76,451.606,727.434z
			 M434.378,712.289c2.386,0,4.612,0.112,6.821-0.037c1.652-0.111,2.265-1.021,2.309-2.781c0.045-1.784-0.431-2.507-2.313-2.654
			c-2.201-0.172-4.427-0.04-6.816-0.04C434.378,708.6,434.378,710.32,434.378,712.289z"/>
		<path fill-rule="evenodd" clip-rule="evenodd" d="M700.425,421.343c-3.371,2.112-6.507,4.077-9.968,6.246
			c-0.438-2.505-0.265-4.557-0.175-6.581c0.021-0.473,0.676-1.027,1.166-1.349c2.001-1.315,4.053-2.553,6.085-3.822
			c2.771-1.73,2.771-1.731,2.139-5.466c-3.015,0-6.087,0-9.309,0c0-2.086,0-3.884,0-5.665c1.672-0.566,22.592-0.716,25.671-0.17
			c0.075,0.468,0.229,0.993,0.231,1.518c0.015,3.914,0.004,7.828-0.013,11.741c-0.003,0.638-0.031,1.28-0.114,1.912
			c-0.489,3.723-2.539,5.686-6.289,6.027c-0.635,0.058-1.276,0.049-1.915,0.054C704.659,425.811,701.966,424.788,700.425,421.343z
			 M705.233,410.516c0,1.32-0.044,2.35,0.011,3.374c0.072,1.347,0.093,2.717,0.374,4.026c0.295,1.372,1.166,1.756,2.993,1.676
			c1.518-0.066,2.158-0.458,2.241-1.9c0.134-2.352,0.036-4.716,0.036-7.175C708.978,410.516,707.263,410.516,705.233,410.516z"/>
		<path fill-rule="evenodd" clip-rule="evenodd" d="M322.431,713.438c0.324,2.92,0.296,5.672-0.665,8.36
			c-0.985,2.756-2.918,4.548-5.678,5.406c-3.515,1.093-7.079,1.147-10.633,0.177c-3.914-1.069-6.256-3.722-7.245-7.566
			c-0.912-3.543-0.901-7.14,0.016-10.676c1.184-4.563,4.159-7.204,8.858-7.938c3.221-0.502,6.388-0.4,9.455,0.702
			c3.686,1.326,5.763,4.545,5.334,8.229c-1.776,0-3.577,0-5.514,0c-0.169-0.44-0.289-0.997-0.578-1.444
			c-0.378-0.587-0.798-1.227-1.361-1.6c-1.883-1.247-6.553-1.142-8.252,0.298c-0.803,0.681-1.496,1.711-1.801,2.716
			c-0.875,2.877-0.806,5.832-0.093,8.752c0.534,2.185,1.939,3.505,4.196,3.639c1.658,0.099,3.357,0.1,4.993-0.15
			c1.944-0.298,2.582-1.27,2.838-3.787c-1.725,0-3.434,0-5.071,0c-1.001-1.751-0.374-3.336-0.579-4.807
			C312.399,713.104,318.797,712.948,322.431,713.438z"/>
		<path fill-rule="evenodd" clip-rule="evenodd" d="M345.51,289.226c-0.413,2.171-0.655,4.486-1.315,6.677
			c-0.995,3.301-3.37,5.37-6.694,6.258c-3.148,0.841-6.336,0.835-9.486,0.021c-3.938-1.017-6.282-3.677-7.242-7.544
			c-0.899-3.625-0.893-7.295-0.003-10.922c1.105-4.503,4.036-7.214,8.664-7.745c2.272-0.26,4.634-0.242,6.9,0.062
			c4.084,0.547,6.882,2.923,8.034,6.916C344.938,284.92,345.12,287.004,345.51,289.226z M326.175,289.147
			c0.068,0.01,0.135,0.021,0.203,0.031c0,0.479-0.014,0.96,0.002,1.439c0.186,5.365,1.901,7.217,7.988,6.699
			c2.289-0.195,3.793-1.436,4.143-3.654c0.345-2.191,0.523-4.447,0.431-6.66c-0.185-4.398-2.24-6.17-6.616-6.013
			c-0.636,0.022-1.272,0.134-1.902,0.237c-1.751,0.288-2.961,1.318-3.405,2.987C326.592,285.82,326.445,287.5,326.175,289.147z"/>
		<path fill-rule="evenodd" clip-rule="evenodd" d="M426.82,289.541c-0.299,1.709-0.485,3.796-1.048,5.775
			c-1.162,4.083-3.979,6.52-8.176,7.075c-2.112,0.279-4.311,0.317-6.425,0.072c-5.054-0.585-7.942-3.227-9.104-8.155
			c-0.876-3.715-0.839-7.463,0.235-11.142c1.218-4.172,4.028-6.676,8.351-7.188c2.117-0.25,4.312-0.282,6.427-0.032
			c5.058,0.599,8.084,3.492,9.09,8.47C426.485,285.977,426.578,287.581,426.82,289.541z M420.627,289.061
			c-0.063-0.008-0.126-0.016-0.19-0.023c0-0.557,0.038-1.117-0.006-1.671c-0.393-5.02-2.779-6.949-7.753-6.287
			c-0.079,0.011-0.157,0.025-0.236,0.037c-2.579,0.394-3.922,1.488-4.33,4.04c-0.323,2.025-0.504,4.131-0.332,6.166
			c0.425,5.01,2.596,6.628,7.648,6.037c0.158-0.019,0.314-0.057,0.473-0.07c2.203-0.191,3.491-1.503,3.994-3.53
			C420.274,292.227,420.393,290.629,420.627,289.061z"/>
		<path fill-rule="evenodd" clip-rule="evenodd" d="M703.3,543.615c-1.866-0.259-3.715-0.362-5.484-0.791
			c-4.18-1.012-6.854-3.614-7.715-7.907c-0.54-2.692-0.53-5.393,0.025-8.087c0.864-4.191,3.477-6.754,7.531-7.816
			c3.694-0.967,7.451-0.961,11.149-0.016c4.172,1.065,6.983,3.686,7.56,8.012c0.353,2.646,0.292,5.429-0.099,8.074
			c-0.609,4.129-3.354,6.63-7.31,7.673C707.123,543.24,705.188,543.341,703.3,543.615z M703.102,524.403
			c-1.553,0.227-3.153,0.345-4.694,0.712c-2.279,0.543-3.196,2.276-3.294,4.458c-0.111,2.465-0.463,5.059,2.208,6.613
			c0.206,0.12,0.418,0.25,0.645,0.318c3.372,1.018,6.776,1.091,10.161,0.142c2.118-0.595,3.063-2.257,3.218-4.321
			c0.181-2.397,0.394-4.883-1.935-6.541c-0.506-0.36-1.143-0.619-1.754-0.731C706.171,524.778,704.665,524.618,703.102,524.403z"/>
		<path fill-rule="evenodd" clip-rule="evenodd" d="M422.264,722.317c0,1.946,0,3.428,0,5.004c-0.586,0.107-1.04,0.262-1.494,0.263
			c-5.515,0.018-11.03,0.032-16.545,0.003c-1.653-0.009-1.844-0.18-1.848-1.77c-0.021-7.753,0-15.506,0.016-23.259
			c0-0.23,0.101-0.462,0.207-0.918c0.533-0.086,1.131-0.264,1.73-0.267c5.115-0.022,10.231-0.026,15.346-0.007
			c2.109,0.008,2.165,0.089,2.206,2.145c0.014,0.718,0.002,1.438-0.04,2.156c-0.013,0.221-0.166,0.433-0.377,0.946
			c-4.169,0-8.438,0-12.821,0c0,1.641,0,2.972,0,4.626c3.966,0,7.916,0,12.042,0c0,1.862,0,3.402,0,5.203c-4.025,0-7.907,0-11.975,0
			c0,2.031,0,3.806,0,5.874C413.195,722.317,417.628,722.317,422.264,722.317z"/>
		<path fill-rule="evenodd" clip-rule="evenodd" d="M360.023,291.466c-2.258,1.261-2.837,2.991-2.651,5.189
			c0.147,1.729,0.03,3.482,0.03,5.3c-2.098,0.568-3.94,0.465-5.932,0.109c0-8.61,0-17.114,0-25.801c1.937,0,3.727,0,5.831,0
			c0,2.978,0,5.895,0,9.306c0.828-0.64,1.271-0.898,1.609-1.256c2.192-2.327,4.387-4.652,6.522-7.03
			c0.748-0.833,1.527-1.277,2.683-1.225c1.801,0.082,3.609,0.022,5.995,0.022c-1.499,2.574-3.411,3.99-4.977,5.681
			c-1.569,1.694-3.221,3.31-4.912,5.039c3.485,5.01,6.888,9.903,10.601,15.241c-1.404,0.123-2.313,0.125-3.192,0.292
			c-3.261,0.624-5.354-0.631-6.877-3.587C363.447,296.212,361.65,293.932,360.023,291.466z"/>
		<path fill-rule="evenodd" clip-rule="evenodd" d="M690.702,378.723c8.357,0,16.739,0,25.092,0
			c0.581,1.668,0.769,15.174,0.262,19.063c-1.51,0-3.053,0-4.96,0c-0.21-4.234,0.029-8.513-0.144-12.911c-1.505,0-2.817,0-4.489,0
			c0,4.01,0,7.953,0,12.009c-1.843,0-3.329,0-5.123,0c-0.221-3.949,0.018-7.837-0.148-11.827c-1.862-0.576-3.643-0.339-5.745-0.166
			c0,4.495,0,8.927,0,13.501c-1.865,0-3.408,0-4.917,0C689.945,395.445,690.088,380.383,690.702,378.723z"/>
		<path fill-rule="evenodd" clip-rule="evenodd" d="M334.489,701.456c2.157,0,4.138,0,6.418,0c3.767,8.192,6.883,16.754,9.52,25.837
			c-2.238,0.536-4.267,0.244-6.451,0.243c-0.534-1.666-1.06-3.31-1.625-5.075c-3.121,0-6.195,0-9.427,0
			c-0.506,1.63-1.018,3.276-1.541,4.959c-2.042,0-3.982,0-6.327,0C327.604,718.345,330.81,709.831,334.489,701.456z
			 M334.579,716.921c2.126,0,3.902,0,6.068,0c-0.969-2.628-1.853-5.025-2.737-7.423c-0.171-0.006-0.342-0.012-0.513-0.018
			C336.486,711.885,335.576,714.288,334.579,716.921z"/>
		<path fill-rule="evenodd" clip-rule="evenodd" d="M716.181,583.762c0,2.336,0,4.397,0,6.53c-8.355,3.703-16.81,6.931-25.814,9.413
			c0-2.289,0-4.254,0-6.496c1.522-0.477,3.168-0.991,4.959-1.551c0-3.085,0-6.161,0-9.398c-1.612-0.503-3.273-1.021-4.976-1.551
			c0-2.028,0-3.992,0-6.322C699.324,576.908,707.783,580.095,716.181,583.762z M708.63,586.822
			c-2.813-1.038-5.194-1.917-7.711-2.847c0,2.16,0,3.939,0,5.982c2.243-0.844,4.252-1.593,6.254-2.36
			C707.521,587.464,707.837,587.248,708.63,586.822z"/>
		<path fill-rule="evenodd" clip-rule="evenodd" d="M716.181,466.634c0,2.343,0,4.405,0,6.539
			c-8.355,3.705-16.812,6.927-25.814,9.415c0-2.293,0-4.258,0-6.5c1.522-0.476,3.168-0.99,4.959-1.549c0-3.086,0-6.163,0-9.399
			c-1.612-0.503-3.273-1.02-4.976-1.551c0-2.028,0-3.991,0-6.319C699.328,459.778,707.778,462.988,716.181,466.634z
			 M700.847,472.835c2.651-1.007,5.124-1.646,7.82-3.134c-2.903-1.071-5.256-1.939-7.82-2.886
			C700.847,468.948,700.847,470.688,700.847,472.835z"/>
		<path fill-rule="evenodd" clip-rule="evenodd" d="M367.278,634.049c-5.813,0-11.626,0-17.766,0c0-6.145,0-11.955,0-17.767
			l-0.067,0.067c2.958,0.007,5.916-0.01,8.874,0.027c2.911,0.036,5.838-0.153,8.893,0.149c0,6.089,0,11.839,0,17.589
			L367.278,634.049z"/>
		<path fill-rule="evenodd" clip-rule="evenodd" d="M367.285,369.661c0-5.821,0-11.643,0-17.422
			c1.92-0.565,11.548-0.736,17.771-0.353l-0.083-0.079c-0.075,5.774-0.15,11.548-0.228,17.518c-1.055,0.048-1.906,0.112-2.758,0.121
			c-4.927,0.049-9.854,0.086-14.78,0.126L367.285,369.661z"/>
		<path fill-rule="evenodd" clip-rule="evenodd" d="M578.889,351.878c5.744,0,11.488,0,17.506,0
			c0.09,6.003,0.179,11.884,0.268,17.766l0.053-0.064c-5.886-0.075-11.771-0.151-17.76-0.228c0-6.044,0-11.793,0-17.542
			L578.889,351.878z"/>
		<path fill-rule="evenodd" clip-rule="evenodd" d="M613.917,386.896c4.872,0.053,9.743,0.108,14.614,0.158
			c0.944,0.01,1.888,0.001,3.176,0.001c0.087,6.033,0.116,11.823-0.024,17.616l0.067-0.067c-2.879,0.027-5.757,0.078-8.636,0.076
			c-2.924-0.002-5.854,0.077-9.001-0.066c0-1.167,0.006-2.033-0.002-2.898c-0.042-4.956-0.088-9.913-0.132-14.869L613.917,386.896z"
			/>
		<path fill-rule="evenodd" clip-rule="evenodd" d="M331.725,404.676c0.057-4.632,0.116-9.264,0.168-13.896
			c0.012-1.106,0.001-2.212,0.001-3.613c6.017-0.089,11.813-0.175,17.609-0.261l-0.061-0.07c0.032,2.958,0.086,5.917,0.089,8.875
			c0.002,2.925,0.066,5.854-0.052,8.893c-6.157,0-11.981,0-17.805,0L331.725,404.676z"/>
		<path fill-rule="evenodd" clip-rule="evenodd" d="M596.655,634.058c-0.051,4.873-0.103,9.747-0.15,14.62
			c-0.008,0.864-0.001,1.729-0.001,2.831c-1.066,0.061-1.914,0.146-2.763,0.149c-4.078,0.015-8.156-0.003-12.234,0.015
			c-0.874,0.004-1.748,0.105-2.622,0.162l0.073,0.051c-0.028-2.958-0.076-5.917-0.077-8.876c-0.001-2.926-0.062-5.855,0.046-8.892
			c6.152,0,11.976,0,17.799,0L596.655,634.058z"/>
		<path fill-rule="evenodd" clip-rule="evenodd" d="M349.512,616.282c-5.433,0.024-10.866,0.053-16.3,0.067
			c-0.311,0.001-0.622-0.099-1.189-0.194c-0.042-0.842-0.12-1.692-0.122-2.543c-0.013-4.156,0.003-8.313-0.013-12.468
			c-0.004-0.875-0.104-1.748-0.159-2.622l-0.042,0.057c5.886,0.082,11.772,0.165,17.758,0.248c0,6.026,0,11.774,0,17.522
			L349.512,616.282z"/>
		<path fill-rule="evenodd" clip-rule="evenodd" d="M631.675,598.505c0,5.82,0,11.641,0,17.418
			c-1.933,0.565-11.607,0.735-17.778,0.352l0.091,0.078c0.07-5.774,0.141-11.549,0.215-17.629c1.075,0,1.924,0.006,2.772-0.001
			c4.926-0.044,9.853-0.09,14.778-0.136L631.675,598.505z"/>
		<path fill-rule="evenodd" clip-rule="evenodd" d="M385.039,651.831c-4.871-0.055-9.741-0.112-14.611-0.164
			c-0.945-0.011-1.89-0.002-3.082-0.002c-0.299-3.146-0.123-6.074-0.143-8.989c-0.02-2.875,0.045-5.751,0.074-8.627l-0.067,0.066
			c5.776,0,11.552,0,17.625,0c0,1.049-0.006,1.899,0.001,2.75c0.045,5.003,0.095,10.006,0.143,15.009L385.039,651.831z"/>
		<path fill-rule="evenodd" clip-rule="evenodd" d="M349.504,386.905c0-5.662,0-11.324,0-17.083
			c0.623-0.149,1.063-0.345,1.503-0.347c5.114-0.019,10.229-0.012,15.343,0.002c0.312,0.001,0.623,0.12,0.935,0.184l-0.078-0.088
			c0,5.726,0,11.452,0,17.356c-1.127,0.052-1.907,0.116-2.687,0.119c-3.277,0.012-6.553,0.029-9.83-0.005
			c-1.75-0.018-3.499-0.135-5.248-0.208L349.504,386.905z"/>
		<path fill-rule="evenodd" clip-rule="evenodd" d="M613.896,616.274c0.07,1.589,0.188,3.178,0.203,4.767
			c0.031,3.436,0.01,6.872,0.01,10.309c0,0.778,0,1.557,0,2.621c-6.001,0.03-11.728,0.059-17.454,0.087l0.07,0.061
			c-0.014-5.735-0.028-11.471-0.037-17.206c0-0.064,0.081-0.129,0.33-0.506c5.515-0.018,11.241-0.035,16.969-0.054L613.896,616.274z
			"/>
		<path fill-rule="evenodd" clip-rule="evenodd" d="M596.662,369.644c3.903-0.064,7.806-0.138,11.709-0.189
			c1.812-0.023,3.624-0.004,5.245-0.004c0.258,0.452,0.401,0.585,0.401,0.719c-0.025,5.576-0.063,11.152-0.101,16.727l0.063-0.05
			c-0.231,0.057-0.462,0.164-0.693,0.165c-5.11,0.017-10.222,0.031-15.332,0.013c-0.438-0.001-0.877-0.236-1.446-0.4
			c0-3.985-0.02-7.893,0.01-11.8c0.014-1.749,0.129-3.497,0.197-5.245L596.662,369.644z"/>
		<path fill-rule="evenodd" clip-rule="evenodd" d="M391.063,302.29c-1.708,0-3.275,0.028-4.841-0.01
			c-0.947-0.024-1.134-0.715-1.134-1.505c-0.001-2.315-0.052-4.632,0.012-6.945c0.035-1.26-0.38-2.261-1.028-3.329
			c-2.316-3.815-4.516-7.703-6.731-11.58c-0.388-0.679-0.638-1.437-1.063-2.415c2.294-0.819,4.495-0.232,6.602-0.434
			c1.719,3.375,3.376,6.627,5.215,10.237c2.395-3.306,3.673-6.724,5.137-10.11c2.167-0.147,4.262-0.242,6.614,0.072
			c-0.283,0.859-0.387,1.477-0.672,1.993c-2.277,4.116-4.539,8.242-6.923,12.295c-0.677,1.151-1.084,2.237-1.03,3.574
			c0.077,1.913,0.033,3.832,0.012,5.748C391.224,300.577,391.138,301.271,391.063,302.29z"/>
		<path fill-rule="evenodd" clip-rule="evenodd" d="M466.647,727.435c-1.977,0-3.766,0-5.886,0c0-2.291-0.125-4.432,0.034-6.551
			c0.176-2.354-0.541-4.253-1.828-6.226c-2.222-3.404-4.104-7.032-6.095-10.585c-0.374-0.668-0.591-1.423-0.964-2.344
			c2.365-0.649,4.488-0.279,6.698-0.328c1.673,3.334,2.934,6.878,5.482,10.157c1.692-3.479,3.257-6.697,4.896-10.067
			c1.924,0,3.971,0,5.986,0c0.67,1.042-0.035,1.797-0.419,2.505c-2.016,3.722-3.979,7.482-6.22,11.066
			c-1.078,1.723-1.625,3.386-1.509,5.375c0.093,1.594,0.036,3.198,0.01,4.797C466.82,725.93,466.718,726.624,466.647,727.435z"/>
		<path fill-rule="evenodd" clip-rule="evenodd" d="M317.663,281.429c-2.429,0-4.644,0-7.116,0
			c-0.071,1.037-0.175,1.875-0.178,2.712c-0.016,5.117-0.001,10.233-0.015,15.351c-0.002,0.854-0.09,1.707-0.144,2.66
			c-2.024,0-3.815,0-5.901,0c0-6.908,0-13.655,0-20.732c-2.635,0-4.984,0-7.464,0c0-1.881,0-3.424,0-5.146
			c6.985,0,13.808,0,20.817,0C317.663,277.946,317.663,279.49,317.663,281.429z"/>
		<path fill-rule="evenodd" clip-rule="evenodd" d="M715.964,502.497c-1.614,0-3.105,0-4.952,0c0-2.438,0-4.776,0-7.422
			c-7.092,0-13.832,0-20.662,0c0-2.115,0-3.912,0-6.015c6.876,0,13.612,0,20.579,0c0-2.583,0-4.867,0-7.377c1.773,0,3.315,0,4.885,0
			C716.379,483.203,716.549,499.192,715.964,502.497z"/>
		<path fill-rule="evenodd" clip-rule="evenodd" d="M710.965,360.316c0-2.549,0-4.773,0-7.042c1.721-0.769,3.337-0.45,5.129-0.287
			c0,6.929,0,13.748,0,20.775c-1.58,0-3.126,0-5.013,0c-0.076-2.292-0.153-4.632-0.24-7.279c-6.879,0-13.619,0-20.497,0
			c0-2.117,0-3.913,0-5.962C697.17,360.217,703.917,360.56,710.965,360.316z"/>
		<path fill-rule="evenodd" clip-rule="evenodd" d="M361.018,701.802c0,6.738,0,13.428,0,20.394c4.165,0,8.127,0,12.287,0
			c0,1.823,0,3.37,0,5.133c-0.572,0.083-1.174,0.242-1.777,0.245c-4.795,0.021-9.591,0.025-14.387,0.007
			c-2.198-0.009-2.288-0.097-2.292-2.306c-0.015-7.193-0.015-14.387,0-21.58c0.004-2.232,0.089-2.299,2.27-2.329
			c0.958-0.014,1.918,0.004,2.875,0.043C360.213,701.417,360.429,701.569,361.018,701.802z"/>
		<path fill-rule="evenodd" clip-rule="evenodd" d="M378.833,727.193c0-8.457,0-16.953,0-25.641c1.905,0,3.693,0,5.806,0
			c0.306,6.768-0.029,13.517,0.198,20.557c4.113,0.321,8.149-0.059,12.305,0.237c0,1.755,0,3.301,0,4.803
			C395.105,727.723,381.046,727.753,378.833,727.193z"/>
		<path fill-rule="evenodd" clip-rule="evenodd" d="M716.173,604.527c0,1.854,0,3.589,0,5.457c-2.229,0.664-4.46,0.248-6.651,0.32
			c-2.314,0.075-4.635,0.017-6.952,0.017c-2.23,0-4.461,0-6.961,0c0,4.144,0,8.104,0,12.049c-1.859,0.756-3.471,0.585-5.245,0.215
			c0-6.015,0-11.969,0-17.906C692.064,604.148,712.922,604.002,716.173,604.527z"/>
		<path fill-rule="evenodd" clip-rule="evenodd" d="M716.126,507.173c0,1.915,0,3.714,0,5.688c-8.638,0-17.123,0-25.767,0
			c0-1.964,0-3.762,0-5.544C692.063,506.785,712.981,506.646,716.126,507.173z"/>
		<path fill-rule="evenodd" clip-rule="evenodd" d="M716.126,315.173c0,1.915,0,3.713,0,5.688c-8.638,0-17.123,0-25.767,0
			c0-1.965,0-3.763,0-5.544C692.064,314.785,712.984,314.647,716.126,315.173z"/>
		<path fill-rule="evenodd" clip-rule="evenodd" fill="#FFFFFF" d="M434.378,712.289c0-1.969,0-3.689,0-5.513
			c2.39,0,4.615-0.132,6.816,0.04c1.883,0.147,2.359,0.87,2.313,2.654c-0.044,1.76-0.657,2.67-2.309,2.781
			C438.99,712.401,436.764,712.289,434.378,712.289z"/>
		<path fill-rule="evenodd" clip-rule="evenodd" fill="#FFFFFF" d="M705.233,410.516c2.029,0,3.744,0,5.655,0
			c0,2.459,0.098,4.824-0.036,7.175c-0.083,1.441-0.724,1.833-2.241,1.9c-1.827,0.081-2.698-0.304-2.993-1.676
			c-0.281-1.309-0.302-2.679-0.374-4.026C705.189,412.866,705.233,411.836,705.233,410.516z"/>
		<path fill-rule="evenodd" clip-rule="evenodd" fill="#FFFFFF" d="M326.175,289.147c0.27-1.647,0.417-3.327,0.844-4.934
			c0.443-1.669,1.654-2.699,3.405-2.987c0.63-0.104,1.266-0.215,1.902-0.237c4.376-0.158,6.432,1.615,6.616,6.013
			c0.093,2.213-0.085,4.469-0.431,6.66c-0.35,2.218-1.854,3.459-4.143,3.654c-6.087,0.519-7.802-1.333-7.988-6.699
			c-0.017-0.479-0.002-0.959-0.002-1.439C326.31,289.168,326.243,289.158,326.175,289.147z"/>
		<path fill-rule="evenodd" clip-rule="evenodd" fill="#FFFFFF" d="M420.627,289.061c-0.234,1.568-0.353,3.166-0.732,4.698
			c-0.502,2.027-1.791,3.339-3.994,3.53c-0.158,0.014-0.314,0.052-0.473,0.07c-5.052,0.591-7.224-1.027-7.648-6.037
			c-0.172-2.035,0.008-4.141,0.332-6.166c0.408-2.552,1.75-3.646,4.33-4.04c0.079-0.012,0.157-0.026,0.236-0.037
			c4.975-0.662,7.36,1.268,7.753,6.287c0.043,0.554,0.006,1.114,0.006,1.671C420.5,289.044,420.563,289.053,420.627,289.061z"/>
		<path fill-rule="evenodd" clip-rule="evenodd" fill="#FFFFFF" d="M703.102,524.403c1.563,0.215,3.069,0.375,4.555,0.649
			c0.611,0.112,1.248,0.371,1.754,0.731c2.328,1.658,2.115,4.144,1.935,6.541c-0.155,2.064-1.1,3.727-3.218,4.321
			c-3.385,0.949-6.789,0.876-10.161-0.142c-0.227-0.068-0.438-0.198-0.645-0.318c-2.671-1.555-2.319-4.148-2.208-6.613
			c0.098-2.182,1.015-3.915,3.294-4.458C699.948,524.748,701.549,524.63,703.102,524.403z"/>
		<path fill-rule="evenodd" clip-rule="evenodd" fill="#FFFFFF" d="M334.579,716.921c0.997-2.633,1.907-5.036,2.818-7.44
			c0.171,0.006,0.342,0.012,0.513,0.018c0.884,2.397,1.768,4.795,2.737,7.423C338.481,716.921,336.705,716.921,334.579,716.921z"/>
		<path fill-rule="evenodd" clip-rule="evenodd" fill="#FFFFFF" d="M708.63,586.822c-0.793,0.426-1.109,0.642-1.457,0.775
			c-2.002,0.768-4.011,1.517-6.254,2.36c0-2.043,0-3.822,0-5.982C703.436,584.905,705.816,585.784,708.63,586.822z"/>
		<path fill-rule="evenodd" clip-rule="evenodd" fill="#FFFFFF" d="M700.847,472.835c0-2.147,0-3.887,0-6.021
			c2.564,0.947,4.917,1.815,7.82,2.886C705.971,471.189,703.498,471.828,700.847,472.835z"/>
		<path fill-rule="evenodd" clip-rule="evenodd" d="M615.391,435.019c-3.089,2.91-6.22,5.858-9.598,9.04
			c6.607,6.613,12.904,12.914,19.369,19.382c-3.201,3.23-6.276,6.333-9.495,9.581c3.203,3.211,6.29,6.305,9.521,9.543
			c-3.22,3.261-6.286,6.367-9.487,9.61c3.222,3.232,6.306,6.326,9.533,9.564c-3.261,3.268-6.345,6.358-9.532,9.553
			c3.237,3.253,6.27,6.299,9.512,9.557c-3.198,3.207-6.273,6.29-9.5,9.526c3.161,3.186,6.188,6.234,9.465,9.535
			c-6.382,6.388-12.672,12.685-19.186,19.205c3.239,3.059,6.311,5.957,9.302,8.781c-1.071,1.857-63.638,64.681-66.388,66.859
			c-3.047-3.035-6.07-6.046-9.298-9.261c21.939-21.94,44.137-44.14,66.476-66.48c-3.22-3.141-6.294-6.142-9.607-9.375
			c6.496-6.521,12.779-12.829,19.244-19.318c-3.284-3.103-6.408-6.055-9.791-9.251c3.371-3.381,6.446-6.465,9.739-9.766
			c-3.16-3.176-6.239-6.27-9.523-9.569c3.156-3.196,6.219-6.298,9.481-9.602c-3.16-3.171-6.243-6.264-9.532-9.564
			c3.181-3.189,6.262-6.279,9.54-9.566c-6.404-6.407-12.708-12.714-19.142-19.149c3.198-3.226,6.224-6.278,9.501-9.584
			c-11.188-11.19-22.297-22.303-33.406-33.414c-11.069-11.07-22.141-22.139-33.101-33.099c3.229-3.205,6.277-6.233,9.375-9.309
			C550.223,369.247,613.861,432.762,615.391,435.019z"/>
		<path fill-rule="evenodd" clip-rule="evenodd" d="M357.445,444.233c-3.263-3.209-6.329-6.225-9.337-9.183
			c0.988-1.748,63.506-64.533,66.802-67.141c3.053,3.033,6.136,6.095,9.463,9.399c-22.317,22.319-44.502,44.506-66.861,66.867
			c3.188,3.221,6.253,6.318,9.194,9.291c-6.404,6.334-12.685,12.546-18.742,18.538c-2.735-2.737-5.811-5.813-9.133-9.137
			C344.734,456.958,350.978,450.707,357.445,444.233z"/>
		<path fill-rule="evenodd" clip-rule="evenodd" d="M423.631,625.977c-2.738,2.745-5.767,5.782-8.861,8.884
			c-1.231-0.688-64.896-64.203-66.335-66.313c0.111-0.194,0.19-0.436,0.35-0.6c2.844-2.917,5.698-5.825,8.325-8.505
			C379.444,581.781,401.616,603.957,423.631,625.977z"/>
		<path fill-rule="evenodd" clip-rule="evenodd" d="M424.742,377.467c6.331-6.33,12.54-12.536,18.938-18.931
			c3.134,2.685,5.955,6.055,9.476,9.155c3.112-3.107,6.198-6.188,9.467-9.45c3.232,3.227,6.327,6.318,9.565,9.552
			c3.219-3.18,6.329-6.252,9.29-9.176c3.22,3.24,6.3,6.339,9.195,9.251c-2.867,2.877-5.947,5.967-9.184,9.215
			c-2.946-2.936-6.042-6.02-9.271-9.238c-3.219,3.207-6.265,6.241-9.547,9.51c-3.174-3.167-6.258-6.246-9.592-9.573
			c-6.329,6.325-12.581,12.572-18.799,18.786C432.618,385.705,427.289,380.587,424.742,377.467z"/>
		<path fill-rule="evenodd" clip-rule="evenodd" d="M348.079,473.619c2.897,2.891,5.934,5.92,9.177,9.156
			c-2.933,2.941-6.003,6.02-9.249,9.274c3.23,3.238,6.306,6.322,9.538,9.563c-3.193,3.226-6.208,6.271-9.397,9.492
			c2.889,3.411,6.272,6.208,9.37,9.751c-3.105,3.103-6.177,6.172-9.038,9.03c-3.222-3.194-6.309-6.254-9.604-9.519
			c2.829-2.852,5.89-5.937,9.116-9.187c-3.241-3.259-6.31-6.344-9.514-9.565c3.216-3.25,6.232-6.298,9.48-9.582
			c-3.167-3.18-6.24-6.265-9.148-9.185C342.002,479.67,345.083,476.602,348.079,473.619z"/>
		<path fill-rule="evenodd" clip-rule="evenodd" d="M366.448,549.553c-2.804,2.845-5.815,5.897-9.076,9.205
			c-6.08-6.076-12.371-12.363-18.46-18.448c3.242-3.235,6.321-6.308,9.168-9.148C354.055,537.143,360.341,543.438,366.448,549.553z"
			/>
		<path fill-rule="evenodd" clip-rule="evenodd" d="M519.908,644.215c-2.718-2.733-5.742-5.773-8.566-8.612
			c6.016-6.007,12.305-12.288,18.425-18.399c2.751,2.762,5.772,5.796,8.552,8.585C532.317,631.795,526.04,638.078,519.908,644.215z"
			/>
		<path fill-rule="evenodd" clip-rule="evenodd" d="M481.577,644.701c-2.995-2.967-6.044-5.986-9.268-9.18
			c-3.167,3.157-6.203,6.184-9.461,9.432c-1.777-1.438-3.211-3.126-4.804-4.633c-1.563-1.479-3.134-2.95-4.627-4.355
			c0.94-1.811,6.379-7.453,9.435-9.862c3.067,3.016,6.169,6.066,9.496,9.338c3.177-3.16,6.261-6.229,9.157-9.109
			c3.212,3.21,6.293,6.288,9.181,9.174C487.883,638.335,484.826,641.422,481.577,644.701z"/>
		<path fill-rule="evenodd" clip-rule="evenodd" d="M425.019,625.67c2.894-2.869,5.941-5.89,8.752-8.677
			c6.186,6.176,12.481,12.461,18.591,18.561c-2.757,2.781-5.816,5.868-8.714,8.792C437.56,638.242,431.321,631.987,425.019,625.67z"
			/>
		<path fill-rule="evenodd" clip-rule="evenodd" d="M511.021,367.732c2.916-2.896,5.962-5.92,8.769-8.707
			c6.188,6.188,12.481,12.483,18.649,18.652c-2.744,2.725-5.834,5.794-8.771,8.71C523.588,380.304,517.331,374.045,511.021,367.732z
			"/>
		<path fill-rule="evenodd" clip-rule="evenodd" d="M501.083,359.021c2.8,2.797,5.842,5.836,9.113,9.105
			c-2.868,2.884-5.933,5.967-9.247,9.301c-3.196-3.191-6.278-6.27-9.148-9.135C494.938,365.158,498.016,362.085,501.083,359.021z"/>
		<path fill-rule="evenodd" clip-rule="evenodd" d="M501.005,644.357c-2.878-2.877-5.949-5.947-8.889-8.887
			c2.863-2.852,5.942-5.919,8.82-8.784c2.916,2.864,6.015,5.905,8.946,8.784C506.968,638.389,503.901,641.458,501.005,644.357z"/>
	</g>
</g>
</svg>
