<svg xmlns="http://www.w3.org/2000/svg" id="tokyointernationalgallery-logo" viewBox="0 0 1750.89 1885.61">
	<style>
		@-webkit-keyframes draw-in {
			to {
				stroke-dashoffset: 0;
			}
		}
		
		@keyframes draw-in {
			to {
				stroke-dashoffset: 0;
			}
		}
		
		@-webkit-keyframes fade-in {
			to {
				opacity: 1;
			}
		}
		
		@keyframes fade-in {
			to {
				opacity: 1;
			}
		}
		
		@-webkit-keyframes fade-out {
			to {
				opacity: 0;
			}
		}
		
		@keyframes fade-out {
			to {
				opacity: 0;
			}
		}
		
		#tokyointernationalgallery-logo #logo-stroke path {
			-webkit-animation: draw-in 3s ease-in-out both, fade-out 2s 1.5s ease-in-out both;
			        animation: draw-in 3s ease-in-out both, fade-out 2s 1.5s ease-in-out both;
		}
		
		#tokyointernationalgallery-logo #logo-fill {
			opacity: 0;
			-webkit-animation: fade-in 2s 1.5s ease-in-out both;
			        animation: fade-in 2s 1.5s ease-in-out both;
		}
	</style>
  <g>
    <g id="logo-stroke">
      <path d="M1250.5,1714.32v-103c22.68-1.32,45.18-.44,67.66-.59,23-.16,46,0,69,0h69.1c.78-34.92.24-69.09.34-103.25.1-34,0-67.94,0-101.74,7.47-2.26,90.88-2.75,103.24-.67v307.41a6,6,0,0,1-.59.72,1.63,1.63,0,0,1-.78.53c-2.31.23-4.62.57-6.93.57C1451.59,1714.32,1351.66,1714.32,1250.5,1714.32Z" stroke="#000" fill="none" stroke-dasharray="1235" stroke-dashoffset="1235"/>
      <path d="M.51,475.77V167.57c7.08-2.11,289.11-3,308.34-1,2,7.2,2.71,81.44.9,102.8-13.29.72-26.81.24-40.3.32-13.66.09-27.32,0-41,0H103.62V475.77Z" stroke="#000" fill="none" stroke-dasharray="1235" stroke-dashoffset="1235"/>
      <path d="M1456.77,269.49H1250.65V166.57h309.12V475.71h-103Z" stroke="#000" fill="none" stroke-dasharray="1237" stroke-dashoffset="1237"/>
      <path d="M103.58,1610.94H309.77v102.74H.58V1404.44H102.92c1.46,22.72.42,45.55.62,68.34s0,45.31,0,68Z" stroke="#000" fill="none" stroke-dasharray="1237" stroke-dashoffset="1237"/>
      <path d="M1028.33,1639.45c.33,4,.93,7.92,1,11.88.11,17.33.07,34.66,0,52,0,3.24-.29,6.48-.47,10.34H514.66v-74.13l-.24.3c3.65.14,7.31.41,11,.41q246.18,0,492.35,0c3.65,0,7.3-.25,11-.38Z" stroke="#000" fill="none" stroke-dasharray="1178" stroke-dashoffset="1178"/>
      <path d="M514.69,243.83V170.55h513.48a20.35,20.35,0,0,1,1.08,4.5q.09,31.95,0,63.91a29.4,29.4,0,0,1-.85,4.87l.27-.24c-3.65.15-7.3.43-11,.43q-246.18,0-492.34,0c-3.66,0-7.31-.28-11-.44Z" stroke="#000" fill="none" stroke-dasharray="1176" stroke-dashoffset="1176"/>
      <path d="M1470.45,685.91c5-.31,9.9-.86,14.86-.9,16-.11,32,0,47.93,0h10.47v514.11c-24.32,1.21-48.8.29-73.26.52l.25.28c-.15-4-.44-8-.44-12q0-245.16,0-490.33c0-4,.29-8,.44-12Z" stroke="#000" fill="none" stroke-dasharray="1176" stroke-dashoffset="1176"/>
      <path d="M74.76,1199.63H2.7c-1-.88-1.32-1.07-1.54-1.31s-.5-.52-.52-.8c-.25-3-.64-5.94-.64-8.91Q0,938.7.18,688.79c0-.91.62-1.81,1.11-3.19A40.23,40.23,0,0,1,6,685q31.49,0,63,0a37.37,37.37,0,0,1,5.88.91l-.42-.35c-.13,3.32-.37,6.64-.37,10q0,246.67,0,493.34c0,3.65.26,7.31.4,11Z" stroke="#000" fill="none" stroke-dasharray="1177" stroke-dashoffset="1177"/>
      <path d="M1028.39,243.83h147.74c.7,12.91.27,25.06.34,37.19.07,12.29,0,24.57,0,36.86l.26-.27H1029.09c0-5,0-8.54,0-12.11q-.21-30.94-.43-61.91Z" stroke="#000" fill="none" stroke-dasharray="445" stroke-dashoffset="445"/>
      <path d="M1396.41,537.85h73.95c.15,25.45.05,49.89.07,74.33s0,49.15,0,73.73l.25-.28q-31.46-.21-62.91-.46c-3.51,0-7-.41-11.11-.67V537.59Z" stroke="#000" fill="none" stroke-dasharray="444" stroke-dashoffset="444"/>
      <path d="M1470.45,1199.6v145.67c-2.75.52-4.61,1.17-6.48,1.18q-30.87.12-61.76,0a38,38,0,0,1-5.83-.94l.31.31v-146h74Z" stroke="#000" fill="none" stroke-dasharray="441" stroke-dashoffset="441"/>
      <path d="M368.76,317.92c-.33-3.61-.93-7.21-.95-10.82-.1-17.27-.05-34.54-.05-51.81V244.12c13-.09,25.19-.21,37.35-.25s24.57,0,36.86,0h35.86q18.44,0,36.86,0l-.28-.25c1.74,24.55.93,66.3-1.67,74H368.45Z" stroke="#000" fill="none" stroke-dasharray="441" stroke-dashoffset="441"/>
      <path d="M74.85,686a90.65,90.65,0,0,1-1-9.81q-.1-63.74,0-127.48c0-3.21.34-6.42.58-10.8h72.21l-.21-.28a73.71,73.71,0,0,1,1,8.83q.11,65,0,130c0,2.56-.42,5.12-.74,8.81-4.1,0-7.69,0-11.27,0l-61,.41Z" stroke="#000" fill="none" stroke-dasharray="442" stroke-dashoffset="442"/>
      <path d="M1176.42,1567.71v72c-4,.32-6.89.75-9.78.75q-64.74.06-129.48,0a75.81,75.81,0,0,1-8.83-1l.36.41c.23-23.87.46-47.73.7-72.4,4.16-.23,7.4-.57,10.64-.58q63.42,0,126.85,0a93.55,93.55,0,0,1,9.83,1Z" stroke="#000" fill="none" stroke-dasharray="441" stroke-dashoffset="441"/>
      <path d="M146.6,1345.6c-5.63.31-11.25.84-16.87.89-15,.12-30,.08-45,0-3.24,0-6.47-.37-10.2-.6-.3-3.28-.73-5.85-.73-8.41q-.06-64.5,0-129a83.52,83.52,0,0,1,1-8.86l-.3.24c25.12-1.68,65.26-.91,72.6,1.48.12,1.51.35,3.15.35,4.78q0,65.92,0,131.84a61.91,61.91,0,0,1-1,7.84Z" stroke="#000" fill="none" stroke-dasharray="437" stroke-dashoffset="437"/>
      <path d="M514.66,1639.53a63.33,63.33,0,0,1-7.83.94q-65.2.09-130.41,0c-2.28,0-4.57-.34-7.26-.55-.47-1.65-1.28-3.16-1.29-4.68q-.11-31.85,0-63.71a19.61,19.61,0,0,1,.82-3.85l-.2.16a35.74,35.74,0,0,1,5.83-.94q66.35-.09,132.7,0c2.48,0,5,.8,7.4,1.23v71.67Z" stroke="#000" fill="none" stroke-dasharray="437" stroke-dashoffset="437"/>
      <path d="M1699.44,240.4h-57c-2.91-7.53-3.18-13.32-1.4-24,7.44-2.54,98-2.81,108,0,0,6.6,0,13.52,0,20.44,0,4.25-3.6,5.26-6.35,6.88-15.46,9.15-31,18.19-46.45,27.32a13.64,13.64,0,0,0-5.76,6.13h57.86v25.07c-11.74,1.53-23.61.55-35.39.73-12,.17-24,0-36,0h-36.93c0-8.32-.57-15.28.3-22.06.32-2.52,3.65-5.22,6.24-6.79,15.64-9.49,31.47-18.67,47.21-28,2.11-1.25,4-2.8,6.06-4.21Z" stroke="#000" fill="none" stroke-dasharray="570" stroke-dashoffset="570"/>
      <path d="M1690.48,1201.14h57.87v25.12c-11.71,1.48-23.57.53-35.35.7-12,.17-24,0-36,0h-37c0-8.29-.57-15.25.3-22,.32-2.52,3.63-5.23,6.21-6.8,15.64-9.5,31.47-18.67,47.21-28a14,14,0,0,0,5.64-5.73h-58.29c-2-8.46-1.28-16.22-.56-23.87,7.74-2.68,98.11-3,108.45-.21,0,6.61,0,13.53,0,20.45,0,4.24-3.57,5.27-6.32,6.9-15.47,9.14-31,18.18-46.46,27.31-2.14,1.27-4.11,2.83-6.16,4.25Z" stroke="#000" fill="none" stroke-dasharray="571" stroke-dashoffset="571"/>
      <path d="M1699.49,676.13h-58.8V652.58c7.47-2.67,97.62-3.08,108.37-.28,0,6.61,0,13.52,0,20.44,0,4.25-3.52,5.3-6.28,6.93-15.46,9.14-31,18.18-46.46,27.31a14.08,14.08,0,0,0-5.86,6.1h57.26c2.29,8.68,1.39,16.18.94,24.18-8.87,3.32-17.86,1.32-26.62,1.66-9,.34-18,.07-27,.07h-55c0-8.25-.57-15.2.29-22,.32-2.53,3.59-5.27,6.17-6.83,15.63-9.5,31.47-18.68,47.2-28,2.13-1.26,4.1-2.79,6.14-4.2Z" stroke="#000" fill="none" stroke-dasharray="570" stroke-dashoffset="570"/>
      <path d="M573.37,1843.52V1883H549.88c-2.47-8.31-2.68-98.7-.25-108.34,2.33-.23,4.9-.7,7.46-.71q22-.09,44,0a75.52,75.52,0,0,1,10.94.87c17.19,2.67,24.63,10.18,26,27.53.51,6.52-.4,13.3-1.66,19.77-1.72,8.77-8,14.29-16.66,18.56l24.81,39.15c-2.39,5.12-6.19,3.18-9.22,3.75-14.24,2.7-24.09-2.19-29.78-15.94-2.25-5.47-6.2-10.23-9.39-15.3C589.06,1841.17,589.06,1841.17,573.37,1843.52Zm1-46.48v22.5c9.7,0,18.92.47,28.07-.15,6.83-.47,9.51-4.37,9.72-11.51.21-6.94-1.8-10.18-8.74-10.67C594,1796.53,584.45,1797,574.4,1797Z" stroke="#000" fill="none" stroke-dasharray="575" stroke-dashoffset="575"/>
      <path d="M1640.17,631.19c0-8.53-.32-17.08.24-25.57.12-2,2.94-4.18,5-5.53,8.65-5.63,17.23-11.43,26.31-16.28,7.07-3.78,10.45-8.66,9-16.63-.23-1.3-.26-2.63-.5-5.11h-38.52c-3-8.81-1.62-16.61-1.19-24.23,7.29-2.35,94.27-3,107.32-.82.38,1.61,1.2,3.47,1.2,5.32,0,18,.28,36-.43,53.94-.82,20.49-10.39,29.39-31,29.52a77.4,77.4,0,0,1-18.67-2.29c-7.9-1.94-12.47-8.29-16.35-15.89l-39.66,25.08Zm62.63-68.82c.48,10.13.44,19.69,1.52,29.11.79,6.81,4.23,8.61,12.26,8.39,6.67-.19,9.36-2,9.74-8.63.53-9.49.13-19,.13-28.87Z" stroke="#000" fill="none" stroke-dasharray="575" stroke-dashoffset="575"/>
      <path d="M106,1810.9H82.39c-.6-1.63-1.32-3.42-1.93-5.25a13.79,13.79,0,0,0-11.6-9.78c-26.1-4-38.25,3.09-38.33,29.79a105.11,105.11,0,0,0,2.11,21.75c1.82,8.69,7.86,13.94,16.85,14.48a100.93,100.93,0,0,0,20.86-.52c8.05-1.19,10.75-5.32,11.81-15.67H59.63V1824c15.58-1.72,31.59-.88,48.26-.42,1.24,13.09,1.56,25.18-3.13,37-5,12.56-14.69,19.52-27.32,22.61a79.28,79.28,0,0,1-38.63,0c-20.25-5.1-30.54-19.27-33.5-39.07-1.88-12.55-1.85-25.28,1.47-37.7,5-18.54,16.73-29.66,35.87-33,13.75-2.44,27.27-2,40.41,2.61C98.41,1781.44,106.7,1793.89,106,1810.9Z" stroke="#000" fill="none" stroke-dasharray="630" stroke-dashoffset="630"/>
      <path d="M543.09,58.24c-1.43,7.65-2.34,17-5,25.84-4.41,14.47-14.76,23.53-29.43,27.19a77.09,77.09,0,0,1-37.64,0c-15.48-3.83-25.79-13.53-30.31-28.86a89.62,89.62,0,0,1-.34-50.29c4.86-17.46,16.28-28.23,34.3-30.49a114.32,114.32,0,0,1,28.75-.13C523.6,4.15,535.83,16,540.08,35.75,541.54,42.56,542,49.59,543.09,58.24Zm-26.59-.37c-.35-4.83-.42-8.17-.86-11.46-2.41-18.06-9.85-24.3-28-23.59-1.33.05-2.66.21-4,.36-11.13,1.33-17,6.22-18.82,17.29a104.73,104.73,0,0,0-1.36,22.84c1.38,23,10.14,29.87,33.05,27,9.79-1.23,15.09-5.47,17.41-15.15C515.42,69,515.82,62.68,516.5,57.87Z" stroke="#000" fill="none" stroke-dasharray="558" stroke-dashoffset="558"/>
      <path d="M204.3,56.78c-1.83,9.41-2.91,19-5.69,28.18-4.06,13.34-13.62,21.89-27.06,25.68a74.55,74.55,0,0,1-42.38-.26c-19.1-5.73-27.86-20.25-29.77-38.61a133.06,133.06,0,0,1,1.41-36.68c3.54-19.74,16-30.32,35.74-33.87a82.41,82.41,0,0,1,31.77.71c19.21,4,31.49,18.75,34,40.64.53,4.62.59,9.3.87,14Zm-26.64-.37-.92-.12c0-2.33.08-4.67,0-7-.85-19.89-9.45-27.67-29.17-26.43-13.63.86-19.61,5.36-21.81,18.71a113.79,113.79,0,0,0-.95,25.83c1.13,16.9,7.78,22.76,24.87,23.25a83.92,83.92,0,0,0,9-.52c8.34-.67,13.67-5.42,15.68-13.17C176,70.28,176.59,63.27,177.66,56.41Z" stroke="#000" fill="none" stroke-dasharray="560" stroke-dashoffset="560"/>
      <path d="M1694.43,1117c-7.88-1.14-15.94-1.59-23.61-3.57-16.51-4.27-28-14.65-30.69-31.8a115.1,115.1,0,0,1-.45-33.66c2.71-18.74,14.83-30,33.21-34.18a96,96,0,0,1,44.55.22c18.38,4.47,29.8,16.28,32.42,35a105,105,0,0,1-.08,29.83c-3.22,21.4-18.25,34.19-41.28,36.77-4.63.52-9.31.57-14,.85Zm-.43-26.32.08-.92c4,0,8,.33,12-.06,15.13-1.48,22-8.88,22.47-24a52.61,52.61,0,0,0-.53-10c-1.36-8.34-6.07-13.93-14.43-16a80.56,80.56,0,0,0-38.55-.07c-9,2.17-13.35,8.63-14,17.3-.83,10.24-2.33,21,8,28.11a19.82,19.82,0,0,0,7.34,3C1682.16,1089.13,1688.1,1089.79,1694,1090.64Z" stroke="#000" fill="none" stroke-dasharray="560" stroke-dashoffset="560"/>
      <path d="M253.41,111.07H229.35c-.45-2.44-1.3-4.92-1.31-7.39q-.14-47,0-94c0-2.22.68-4.44,1.12-7.19h23.66c2.3,12.3,0,24.6,1.66,38.36,3.26-3,5.42-4.87,7.35-6.92,8.66-9.23,17.36-18.44,25.83-27.83,2.66-2.94,5.4-4.5,9.46-4.32,6.32.28,12.66,0,19,.14,1.82,0,3.63.8,6,1.36-2.15,7.08-7.9,10.32-11.95,14.84-4.44,5-9.15,9.7-14,14.25-4.61,4.33-9.58,8.29-15,12.91l44.25,63.39c-6,4.56-11.47,2.8-16.52,2.76-17.81-.14-12.54,2.9-22.79-12.29-7.24-10.74-14.31-21.6-21.7-32.79C256.28,71,253,77,253.67,86,254.27,94.17,253.55,102.42,253.41,111.07Z" stroke="#000" fill="none" stroke-dasharray="550" stroke-dashoffset="550"/>
      <path d="M467.05,1838.36v22.47c18.77,1,37.58-.24,56.85.75v20.25c-8.11,2.27-72.67,2.45-82.33.19a64.51,64.51,0,0,1-.81-7.39q-.09-45.45,0-90.89c0-9.48.28-9.79,9.28-9.82q31.47-.12,62.93,0c9.18,0,9.34.3,9.46,9.63.05,3.6,0,7.2,0,12.19-18.61,1.21-36.46,0-55,.79v18.3c16.07,1,32.57-.18,48.33.64,1,1.19,1.77,1.65,1.85,2.2,2.89,19.13,2.23,19.9-16.51,19.91q-15.49,0-31,.1A22.91,22.91,0,0,0,467.05,1838.36Z" stroke="#000" fill="none" stroke-dasharray="583" stroke-dashoffset="583"/>
      <path d="M1748.58,430.57v78.89h-21.34c-1.24-17.75.12-35.58-.8-53.85h-18.15v49.67h-21.78V456.34c-8.24-2.39-15.46-.88-23.94-1.36v55.69c-7.63,3.32-14.18,1.6-20.41,1.81-2.67-7.61-3.17-71-.89-81.78C1648.84,428.72,1737.67,428.42,1748.58,430.57Z" stroke="#000" fill="none" stroke-dasharray="583" stroke-dashoffset="583"/>
      <path d="M225,1882.72h-27.8q-3.08-9.79-6.46-20.66H151.61c-2.08,7-4,13.63-6.15,20.74H118.58c10.49-37.83,24-73.21,39.27-108.37H185C200.78,1808.55,213.59,1844.31,225,1882.72Zm-42.16-44.18c-2.47-10.73-6.54-20.47-11.93-32l-12.14,32Z" stroke="#000" fill="none" stroke-dasharray="488" stroke-dashoffset="488"/>
      <path d="M1661.56,790l-20.93-6.56V756.82c37.77,10.45,73.2,23.9,108.12,39.22v27.32c-34.7,15.42-70.14,29-108,39.39V835.21l20.82-6.46Zm23.18,31.36c10.63-3.56,20.66-6.6,31.64-12.24-11.64-4.72-21-9.2-31.64-11.36Z" stroke="#000" fill="none" stroke-dasharray="486" stroke-dashoffset="486"/>
      <path d="M1661.66,1316.85v-38.66l-20.87-6.71v-26.74A828.41,828.41,0,0,1,1748.6,1284v27.43a797.4,797.4,0,0,1-106.81,39.23c-3.06-9.07-1.74-17.28-1.29-25.36.07-1.22,2.58-2.78,4.24-3.35C1650.05,1320.09,1655.5,1318.66,1661.66,1316.85ZM1685,1285v24.18c10.69-3.31,20.49-6.52,31.65-12.21Z" stroke="#000" fill="none" stroke-dasharray="485" stroke-dashoffset="485"/>
      <path d="M1322.4,463.78q31.29.27,62.57.56c3.55,0,7.11.3,11.44.49v73l.27-.26H1323.3c-.22-25.14-.45-49.56-.67-74Z" stroke="#000" fill="none" stroke-dasharray="296" stroke-dashoffset="296"/>
      <path d="M1176.44,317.88h73.18c.3,25.21.59,49.61.88,74l.19-.25-74-.68V317.61Z" stroke="#000" fill="none" stroke-dasharray="296" stroke-dashoffset="296"/>
      <path d="M294.71,1493.62H221.25c-1.18-25.28-.27-49.67-.57-74l-.26.27c12.26,0,24.52-.06,36.78,0s24.24.17,37.24.27v73.77Z" stroke="#000" fill="none" stroke-dasharray="297" stroke-dashoffset="297"/>
      <path d="M146.58,537.87q.27-30.79.55-61.59c0-3.55.3-7.09.5-11.61l73-.85-.25-.27v74h-74Z" stroke="#000" fill="none" stroke-dasharray="295" stroke-dashoffset="295"/>
      <path d="M294.72,392V317.92h74l-.31-.32c-.23,24.1-.46,48.21-.7,73.38l-73.32.64Z" stroke="#000" fill="none" stroke-dasharray="296" stroke-dashoffset="296"/>
      <path d="M1250.46,1493.63l-.48,60.61c0,3.62,0,7.24,0,12.1-4,.31-7.5.79-11,.8-17.23.08-34.46,0-51.69.06-3.63,0-7.26.33-10.9.51l.29.21v-74h74Z" stroke="#000" fill="none" stroke-dasharray="296" stroke-dashoffset="296"/>
      <path d="M220.68,1419.58q-34.26.18-68.53.32c-1.24,0-2.49-.54-4.68-1q-.43-36.7-.87-73.26l-.17.21,74,.76v73.28Z" stroke="#000" fill="none" stroke-dasharray="295" stroke-dashoffset="295"/>
      <path d="M1396.38,1345.53v72.41c-7,2.58-47.75,3.44-74.08,1.63l.37.3c.2-24.11.41-48.22.62-73.62,4.61,0,8.15,0,11.69,0q30.86-.18,61.71-.4Z" stroke="#000" fill="none" stroke-dasharray="295" stroke-dashoffset="295"/>
      <path d="M368.69,1567.7q-31.28-.27-62.55-.54c-3.55,0-7.1-.32-11.43-.52v-73l-.27.25h73.61c0,4.26,0,7.8,0,11.34q.21,31.32.44,62.65Z" stroke="#000" fill="none" stroke-dasharray="296" stroke-dashoffset="296"/>
      <path d="M1322.3,1419.57a62.82,62.82,0,0,1,1,7.79q.12,28.83,0,57.65c0,2.27-.32,4.55-.53,7.34-7.89,2.41-15.83,1-23.61,1.19-8.27.25-16.56,0-24.84.06l-23.86,0,.29.26a25.19,25.19,0,0,1-.93-4.84q-.09-32.35,0-64.69c0-1.22.67-2.44,1.26-4.49h71.59Z" stroke="#000" fill="none" stroke-dasharray="293" stroke-dashoffset="293"/>
      <path d="M220.66,463.82V392.14c2.87-.49,4.75-1.08,6.62-1.09q30.81-.1,61.62,0a36.73,36.73,0,0,1,5.82.94l-.29-.36q-.23,35.25-.47,70.51c0,.26-.38.53-.61.77s-.48.44-1.32,1.18c-1.93.13-4.54.45-7.16.46q-27.83.06-55.65,0a79.86,79.86,0,0,1-8.81-1Z" stroke="#000" fill="none" stroke-dasharray="292" stroke-dashoffset="292"/>
      <path d="M1250.5,391.9c6.29-.31,12.58-.82,18.87-.88,14.32-.13,28.65-.07,43,0,3.24,0,6.47.36,9.2.52.78,1.35,1.38,1.9,1.38,2.46q.19,33.47.24,66.93a11.15,11.15,0,0,1-.77,2.86l.23-.17a27.25,27.25,0,0,1-4.83.87q-30.83.11-61.65,0c-1.87,0-3.73-.62-6.43-1.1V453.17c0-16.58-.06-33.15,0-49.72,0-3.94.6-7.87.92-11.8Z" stroke="#000" fill="none" stroke-dasharray="290" stroke-dashoffset="290"/>
      <path d="M331.58,2.7h29.18c2.95,6.31,6,13.27,9.44,20S377.44,36.11,381.75,44C391.43,30.44,396.68,16.12,403,2c9.1.11,17.91-.8,27.91.82-1.43,3.91-2.08,6.75-3.42,9.21-9,16.31-17.7,32.79-27.38,48.68C396.24,67,394.24,73,394.51,80.23c.38,9.9.1,19.82.1,28.92-1.66,1.18-2.16,1.83-2.73,1.89-23.16,2.63-23.77,2.61-22.94-20.37.53-14.51-2.36-26.86-11-38.95s-14.87-25.93-22-39.06C334.46,10.11,333.53,7.3,331.58,2.7Z" stroke="#000" fill="none" stroke-dasharray="408" stroke-dashoffset="408"/>
      <path d="M647.28,1774.62h28.06l21.16,41.75c9.85-13.91,15.14-28.08,21.31-42h27.6c-1.28,4.12-1.79,7.63-3.38,10.54-9,16.31-17.88,32.66-27.47,48.59-3.26,5.41-5,10.56-4.81,16.79.29,10.56.08,21.13.08,32.49h-24.9c-.31-3.31-.86-6.78-.91-10.26-.17-10,1.85-20.52-.75-29.79s-9.92-17-14.83-25.69c-6.08-10.69-11.9-21.53-17.63-32.41C649.37,1781.85,648.69,1778.7,647.28,1774.62Z" stroke="#000" fill="none" stroke-dasharray="410" stroke-dashoffset="410"/>
      <path d="M32,24.39H1.18V3.85c7-2.32,69.36-3.12,86-1.12C90.36,9.16,88.7,16,88.39,23.06c-9.78,3.83-20.06-.27-30.46,2.93-.33,28.11.15,56.28-.28,85.59H33.5C30.71,101.47,32.31,92.16,32,83,31.75,73.34,32,63.67,32,54Z" stroke="#000" fill="none" stroke-dasharray="387" stroke-dashoffset="387"/>
      <path d="M1726.23,858.38h21c2.33,7.6,2.68,76.39.37,87h-20.43V915.67c-4.55-.27-8-.64-11.5-.65-21.3,0-42.59,0-63.88-.06-3.56,0-7.12-.39-11.23-.64V890.27c9.51-2.17,18.79-.84,28-1.07,9.65-.24,19.3-.05,29-.05h28.76Z" stroke="#000" fill="none" stroke-dasharray="386" stroke-dashoffset="386"/>
      <path d="M1640.59,378.24V353.33c14.72-.38,28.9-.13,43.08-.17,13.9-.05,27.8,0,42.69,0V323.61c7.59-3.15,14.35-1.74,21-1.36,2.33,8.38,2.48,77.61.17,87.2h-20.41V379.63c-4.57-.25-8.07-.6-11.57-.61-21.29,0-42.58,0-63.87-.06C1648.09,379,1644.55,378.51,1640.59,378.24Z" stroke="#000" fill="none" stroke-dasharray="386" stroke-dashoffset="386"/>
      <path d="M268.61,1861h51.45v21.28c-2.21.42-4.39,1.17-6.57,1.18q-30.93.13-61.85,0c-8.47,0-8.87-.46-8.89-9.2q-.1-45.88,0-91.77c0-8,.58-8.45,8.47-8.62,5.24-.12,10.49,0,16.06,0,2.45,10.12,1,19.39,1.27,28.55.26,9.63.06,19.28.06,28.93Z" stroke="#000" fill="none" stroke-dasharray="368" stroke-dashoffset="368"/>
      <path d="M368.21,1861h50.46c1.92,8,2.26,14.73-.18,22H344c-2.55-7.56-3-97.28-.55-108.29h23.7C368.77,1802.73,367.09,1830.88,368.21,1861Z" stroke="#000" fill="none" stroke-dasharray="366" stroke-dashoffset="366"/>
      <path d="M1662.59,1445.49c-7.83,2.58-14.54,2.35-21.92.39v-74.69c7-2.45,91.87-3.28,107-1,2.84,7.54,1,15.34,1.12,24.21-14.93,1.32-29.17.45-43.37.61-13.92.15-27.84,0-42.88,0Z" stroke="#000" fill="none" stroke-dasharray="366" stroke-dashoffset="366"/>
      <path d="M1748.59,164.79v22.87c-7.44,2.32-95,2.87-107.31.73-2.61-7.53-.85-15.34-1-22.88C1648.06,163.33,1734.69,162.77,1748.59,164.79Z" stroke="#000" fill="none" stroke-dasharray="262" stroke-dashoffset="262"/>
      <path d="M1748.58,964.81v22.86c-7.46,2.31-95.26,2.83-107.32.71-2.42-7.54-1.27-15.33-.64-23C1648.09,963.33,1735,962.8,1748.58,964.81Z" stroke="#000" fill="none" stroke-dasharray="262" stroke-dashoffset="262"/>
      <path d="M1289.7,703l79.78,79.8-39.64,39.7,39.69,40.11-39.69,39.73,39.87,39.92L1330,982.16l39.69,39.75L1330,1061.6l39.26,39.63c-26.14,27-52.87,52.77-79.62,80.22,13.33,12.56,26.16,24.63,38.63,36.36-4.51,8.13-259.57,264.57-278.63,280.62-6.13-6.12-12.3-12.44-18.65-18.57s-13.09-12.31-18.65-17.52c0-2.26,0-2.59,0-2.92a2.43,2.43,0,0,1,.26-.93,13.9,13.9,0,0,1,1.14-1.62,18.79,18.79,0,0,1,1.36-1.46l272.75-273.06a11.34,11.34,0,0,0,.88-2l-38.76-39.1,79.54-79.58-39.68-39.78,39.67-39.8-39.83-39.9,39.73-39.88-39.76-39.81,39.6-40c-26.59-26.63-52.84-52.94-79.72-79.87l39.7-39.78L1012.19,425.82l39.06-39c5.14,2.67,266.4,262.62,277.45,276.78Z" stroke="#000" fill="none" stroke-dasharray="3141" stroke-dashoffset="3141"/>
      <path d="M175.16,780.71l78.57-78.14-38.22-38.29L494.35,385.56l38.31,38.1c26.62-26.62,52.66-52.65,79.6-79.57l40,39.82c13.37-13.33,26.23-26.15,39.79-39.65l39.91,39.83,38.56-38.32,38.64,38.73-38.54,38.37L731.9,384.66l-39.74,39.57-39.94-39.89-79.53,79.43c-13.63-12.77-26.06-26.08-38.17-37.72L256.11,704.55l36.15,36.21-78.65,78.43C202,807.51,189.08,794.64,175.16,780.71Z" stroke="#000" fill="none" stroke-dasharray="2002" stroke-dashoffset="2002"/>
      <path d="M216.84,1221.88l37.76-38.39L530.89,1459.8c-2.68,5-25.06,28.25-37.1,38C487.51,1494.31,222.65,1230.17,216.84,1221.88Z" stroke="#000" fill="none" stroke-dasharray="889" stroke-dashoffset="889"/>
      <path d="M174.6,1021.64l39.57-40-39.71-39.87,39.94-40.11-39.56-37c4.19-8.07,25.77-30.53,38.66-41.11,6.58,3.66,33.8,30.48,39.78,39.44l-38.63,39,39.73,39.86c-13.34,13.41-26.13,26.26-39.66,39.84l39.43,39.54c-6,7.55-13.08,13.53-19.38,20.17L215.25,1062C201.23,1048.53,188.66,1035.45,174.6,1021.64Z" stroke="#000" fill="none" stroke-dasharray="673" stroke-dashoffset="673"/>
      <path d="M571.59,1420.62l78.08,78c-12,12.06-24.81,24.91-38,38.2-4.32-2.38-67.1-64.12-78.19-78Z" stroke="#000" fill="none" stroke-dasharray="329" stroke-dashoffset="329"/>
      <path d="M1010.12,424.35l-39.46,39.46c-26-25.87-52.17-52.14-77.54-77.51,13.22-13.2,26-26,39.23-39.2C937,349.77,998.66,410.44,1010.12,424.35Z" stroke="#000" fill="none" stroke-dasharray="331" stroke-dashoffset="331"/>
      <path d="M177.54,1100.17l36.38-36.24,78.86,78.86c-4.74,5.82-11.76,11.85-18.09,18.5l-17.63,18.52Z" stroke="#000" fill="none" stroke-dasharray="327" stroke-dashoffset="327"/>
      <path d="M971.51,1422.86l37.43,37.49c-2.69,4.75-67,69.87-76.31,76.9L895,1499.32Z" stroke="#000" fill="none" stroke-dasharray="323" stroke-dashoffset="323"/>
      <path d="M693.93,1538.17l-38.33-38.61,38.49-38.36,38.34,38.14L771,1461c6.72,3.61,32.62,28.84,39.24,37.79L771,1538.32l-38.6-38.48Z" stroke="#000" fill="none" stroke-dasharray="437" stroke-dashoffset="437"/>
      <path d="M889.21,1499.71l-37.06,37.16-37.21-37,37.21-37Z" stroke="#000" fill="none" stroke-dasharray="210" stroke-dashoffset="210"/>
      <path d="M851.63,346.53l37,37.1L850.84,421.5l-36.77-37Z" stroke="#000" fill="none" stroke-dasharray="212" stroke-dashoffset="212"/>
    </g>
    <g id="logo-fill">
      <path d="M1250.5,1714.32v-103c22.68-1.32,45.18-.44,67.66-.59,23-.16,46,0,69,0h69.1c.78-34.92.24-69.09.34-103.25.1-34,0-67.94,0-101.74,7.47-2.26,90.88-2.75,103.24-.67v307.41a6,6,0,0,1-.59.72,1.63,1.63,0,0,1-.78.53c-2.31.23-4.62.57-6.93.57C1451.59,1714.32,1351.66,1714.32,1250.5,1714.32Z"/>
      <path d="M.51,475.77V167.57c7.08-2.11,289.11-3,308.34-1,2,7.2,2.71,81.44.9,102.8-13.29.72-26.81.24-40.3.32-13.66.09-27.32,0-41,0H103.62V475.77Z"/>
      <path d="M1456.77,269.49H1250.65V166.57h309.12V475.71h-103Z"/>
      <path d="M103.58,1610.94H309.77v102.74H.58V1404.44H102.92c1.46,22.72.42,45.55.62,68.34s0,45.31,0,68Z"/>
      <path d="M1028.33,1639.45c.33,4,.93,7.92,1,11.88.11,17.33.07,34.66,0,52,0,3.24-.29,6.48-.47,10.34H514.66v-74.13l-.24.3c3.65.14,7.31.41,11,.41q246.18,0,492.35,0c3.65,0,7.3-.25,11-.38Z"/>
      <path d="M514.69,243.83V170.55h513.48a20.35,20.35,0,0,1,1.08,4.5q.09,31.95,0,63.91a29.4,29.4,0,0,1-.85,4.87l.27-.24c-3.65.15-7.3.43-11,.43q-246.18,0-492.34,0c-3.66,0-7.31-.28-11-.44Z"/>
      <path d="M1470.45,685.91c5-.31,9.9-.86,14.86-.9,16-.11,32,0,47.93,0h10.47v514.11c-24.32,1.21-48.8.29-73.26.52l.25.28c-.15-4-.44-8-.44-12q0-245.16,0-490.33c0-4,.29-8,.44-12Z"/>
      <path d="M74.76,1199.63H2.7c-1-.88-1.32-1.07-1.54-1.31s-.5-.52-.52-.8c-.25-3-.64-5.94-.64-8.91Q0,938.7.18,688.79c0-.91.62-1.81,1.11-3.19A40.23,40.23,0,0,1,6,685q31.49,0,63,0a37.37,37.37,0,0,1,5.88.91l-.42-.35c-.13,3.32-.37,6.64-.37,10q0,246.67,0,493.34c0,3.65.26,7.31.4,11Z"/>
      <path d="M1028.39,243.83h147.74c.7,12.91.27,25.06.34,37.19.07,12.29,0,24.57,0,36.86l.26-.27H1029.09c0-5,0-8.54,0-12.11q-.21-30.94-.43-61.91Z"/>
      <path d="M1396.41,537.85h73.95c.15,25.45.05,49.89.07,74.33s0,49.15,0,73.73l.25-.28q-31.46-.21-62.91-.46c-3.51,0-7-.41-11.11-.67V537.59Z"/>
      <path d="M1470.45,1199.6v145.67c-2.75.52-4.61,1.17-6.48,1.18q-30.87.12-61.76,0a38,38,0,0,1-5.83-.94l.31.31v-146h74Z"/>
      <path d="M368.76,317.92c-.33-3.61-.93-7.21-.95-10.82-.1-17.27-.05-34.54-.05-51.81V244.12c13-.09,25.19-.21,37.35-.25s24.57,0,36.86,0h35.86q18.44,0,36.86,0l-.28-.25c1.74,24.55.93,66.3-1.67,74H368.45Z"/>
      <path d="M74.85,686a90.65,90.65,0,0,1-1-9.81q-.1-63.74,0-127.48c0-3.21.34-6.42.58-10.8h72.21l-.21-.28a73.71,73.71,0,0,1,1,8.83q.11,65,0,130c0,2.56-.42,5.12-.74,8.81-4.1,0-7.69,0-11.27,0l-61,.41Z"/>
      <path d="M1176.42,1567.71v72c-4,.32-6.89.75-9.78.75q-64.74.06-129.48,0a75.81,75.81,0,0,1-8.83-1l.36.41c.23-23.87.46-47.73.7-72.4,4.16-.23,7.4-.57,10.64-.58q63.42,0,126.85,0a93.55,93.55,0,0,1,9.83,1Z"/>
      <path d="M146.6,1345.6c-5.63.31-11.25.84-16.87.89-15,.12-30,.08-45,0-3.24,0-6.47-.37-10.2-.6-.3-3.28-.73-5.85-.73-8.41q-.06-64.5,0-129a83.52,83.52,0,0,1,1-8.86l-.3.24c25.12-1.68,65.26-.91,72.6,1.48.12,1.51.35,3.15.35,4.78q0,65.92,0,131.84a61.91,61.91,0,0,1-1,7.84Z"/>
      <path d="M514.66,1639.53a63.33,63.33,0,0,1-7.83.94q-65.2.09-130.41,0c-2.28,0-4.57-.34-7.26-.55-.47-1.65-1.28-3.16-1.29-4.68q-.11-31.85,0-63.71a19.61,19.61,0,0,1,.82-3.85l-.2.16a35.74,35.74,0,0,1,5.83-.94q66.35-.09,132.7,0c2.48,0,5,.8,7.4,1.23v71.67Z"/>
      <path d="M1699.44,240.4h-57c-2.91-7.53-3.18-13.32-1.4-24,7.44-2.54,98-2.81,108,0,0,6.6,0,13.52,0,20.44,0,4.25-3.6,5.26-6.35,6.88-15.46,9.15-31,18.19-46.45,27.32a13.64,13.64,0,0,0-5.76,6.13h57.86v25.07c-11.74,1.53-23.61.55-35.39.73-12,.17-24,0-36,0h-36.93c0-8.32-.57-15.28.3-22.06.32-2.52,3.65-5.22,6.24-6.79,15.64-9.49,31.47-18.67,47.21-28,2.11-1.25,4-2.8,6.06-4.21Z"/>
      <path d="M1690.48,1201.14h57.87v25.12c-11.71,1.48-23.57.53-35.35.7-12,.17-24,0-36,0h-37c0-8.29-.57-15.25.3-22,.32-2.52,3.63-5.23,6.21-6.8,15.64-9.5,31.47-18.67,47.21-28a14,14,0,0,0,5.64-5.73h-58.29c-2-8.46-1.28-16.22-.56-23.87,7.74-2.68,98.11-3,108.45-.21,0,6.61,0,13.53,0,20.45,0,4.24-3.57,5.27-6.32,6.9-15.47,9.14-31,18.18-46.46,27.31-2.14,1.27-4.11,2.83-6.16,4.25Z"/>
      <path d="M1699.49,676.13h-58.8V652.58c7.47-2.67,97.62-3.08,108.37-.28,0,6.61,0,13.52,0,20.44,0,4.25-3.52,5.3-6.28,6.93-15.46,9.14-31,18.18-46.46,27.31a14.08,14.08,0,0,0-5.86,6.1h57.26c2.29,8.68,1.39,16.18.94,24.18-8.87,3.32-17.86,1.32-26.62,1.66-9,.34-18,.07-27,.07h-55c0-8.25-.57-15.2.29-22,.32-2.53,3.59-5.27,6.17-6.83,15.63-9.5,31.47-18.68,47.2-28,2.13-1.26,4.1-2.79,6.14-4.2Z"/>
      <path d="M573.37,1843.52V1883H549.88c-2.47-8.31-2.68-98.7-.25-108.34,2.33-.23,4.9-.7,7.46-.71q22-.09,44,0a75.52,75.52,0,0,1,10.94.87c17.19,2.67,24.63,10.18,26,27.53.51,6.52-.4,13.3-1.66,19.77-1.72,8.77-8,14.29-16.66,18.56l24.81,39.15c-2.39,5.12-6.19,3.18-9.22,3.75-14.24,2.7-24.09-2.19-29.78-15.94-2.25-5.47-6.2-10.23-9.39-15.3C589.06,1841.17,589.06,1841.17,573.37,1843.52Zm1-46.48v22.5c9.7,0,18.92.47,28.07-.15,6.83-.47,9.51-4.37,9.72-11.51.21-6.94-1.8-10.18-8.74-10.67C594,1796.53,584.45,1797,574.4,1797Z"/>
      <path d="M1640.17,631.19c0-8.53-.32-17.08.24-25.57.12-2,2.94-4.18,5-5.53,8.65-5.63,17.23-11.43,26.31-16.28,7.07-3.78,10.45-8.66,9-16.63-.23-1.3-.26-2.63-.5-5.11h-38.52c-3-8.81-1.62-16.61-1.19-24.23,7.29-2.35,94.27-3,107.32-.82.38,1.61,1.2,3.47,1.2,5.32,0,18,.28,36-.43,53.94-.82,20.49-10.39,29.39-31,29.52a77.4,77.4,0,0,1-18.67-2.29c-7.9-1.94-12.47-8.29-16.35-15.89l-39.66,25.08Zm62.63-68.82c.48,10.13.44,19.69,1.52,29.11.79,6.81,4.23,8.61,12.26,8.39,6.67-.19,9.36-2,9.74-8.63.53-9.49.13-19,.13-28.87Z"/>
      <path d="M106,1810.9H82.39c-.6-1.63-1.32-3.42-1.93-5.25a13.79,13.79,0,0,0-11.6-9.78c-26.1-4-38.25,3.09-38.33,29.79a105.11,105.11,0,0,0,2.11,21.75c1.82,8.69,7.86,13.94,16.85,14.48a100.93,100.93,0,0,0,20.86-.52c8.05-1.19,10.75-5.32,11.81-15.67H59.63V1824c15.58-1.72,31.59-.88,48.26-.42,1.24,13.09,1.56,25.18-3.13,37-5,12.56-14.69,19.52-27.32,22.61a79.28,79.28,0,0,1-38.63,0c-20.25-5.1-30.54-19.27-33.5-39.07-1.88-12.55-1.85-25.28,1.47-37.7,5-18.54,16.73-29.66,35.87-33,13.75-2.44,27.27-2,40.41,2.61C98.41,1781.44,106.7,1793.89,106,1810.9Z"/>
      <path d="M543.09,58.24c-1.43,7.65-2.34,17-5,25.84-4.41,14.47-14.76,23.53-29.43,27.19a77.09,77.09,0,0,1-37.64,0c-15.48-3.83-25.79-13.53-30.31-28.86a89.62,89.62,0,0,1-.34-50.29c4.86-17.46,16.28-28.23,34.3-30.49a114.32,114.32,0,0,1,28.75-.13C523.6,4.15,535.83,16,540.08,35.75,541.54,42.56,542,49.59,543.09,58.24Zm-26.59-.37c-.35-4.83-.42-8.17-.86-11.46-2.41-18.06-9.85-24.3-28-23.59-1.33.05-2.66.21-4,.36-11.13,1.33-17,6.22-18.82,17.29a104.73,104.73,0,0,0-1.36,22.84c1.38,23,10.14,29.87,33.05,27,9.79-1.23,15.09-5.47,17.41-15.15C515.42,69,515.82,62.68,516.5,57.87Z"/>
      <path d="M204.3,56.78c-1.83,9.41-2.91,19-5.69,28.18-4.06,13.34-13.62,21.89-27.06,25.68a74.55,74.55,0,0,1-42.38-.26c-19.1-5.73-27.86-20.25-29.77-38.61a133.06,133.06,0,0,1,1.41-36.68c3.54-19.74,16-30.32,35.74-33.87a82.41,82.41,0,0,1,31.77.71c19.21,4,31.49,18.75,34,40.64.53,4.62.59,9.3.87,14Zm-26.64-.37-.92-.12c0-2.33.08-4.67,0-7-.85-19.89-9.45-27.67-29.17-26.43-13.63.86-19.61,5.36-21.81,18.71a113.79,113.79,0,0,0-.95,25.83c1.13,16.9,7.78,22.76,24.87,23.25a83.92,83.92,0,0,0,9-.52c8.34-.67,13.67-5.42,15.68-13.17C176,70.28,176.59,63.27,177.66,56.41Z"/>
      <path d="M1694.43,1117c-7.88-1.14-15.94-1.59-23.61-3.57-16.51-4.27-28-14.65-30.69-31.8a115.1,115.1,0,0,1-.45-33.66c2.71-18.74,14.83-30,33.21-34.18a96,96,0,0,1,44.55.22c18.38,4.47,29.8,16.28,32.42,35a105,105,0,0,1-.08,29.83c-3.22,21.4-18.25,34.19-41.28,36.77-4.63.52-9.31.57-14,.85Zm-.43-26.32.08-.92c4,0,8,.33,12-.06,15.13-1.48,22-8.88,22.47-24a52.61,52.61,0,0,0-.53-10c-1.36-8.34-6.07-13.93-14.43-16a80.56,80.56,0,0,0-38.55-.07c-9,2.17-13.35,8.63-14,17.3-.83,10.24-2.33,21,8,28.11a19.82,19.82,0,0,0,7.34,3C1682.16,1089.13,1688.1,1089.79,1694,1090.64Z"/>
      <path d="M253.41,111.07H229.35c-.45-2.44-1.3-4.92-1.31-7.39q-.14-47,0-94c0-2.22.68-4.44,1.12-7.19h23.66c2.3,12.3,0,24.6,1.66,38.36,3.26-3,5.42-4.87,7.35-6.92,8.66-9.23,17.36-18.44,25.83-27.83,2.66-2.94,5.4-4.5,9.46-4.32,6.32.28,12.66,0,19,.14,1.82,0,3.63.8,6,1.36-2.15,7.08-7.9,10.32-11.95,14.84-4.44,5-9.15,9.7-14,14.25-4.61,4.33-9.58,8.29-15,12.91l44.25,63.39c-6,4.56-11.47,2.8-16.52,2.76-17.81-.14-12.54,2.9-22.79-12.29-7.24-10.74-14.31-21.6-21.7-32.79C256.28,71,253,77,253.67,86,254.27,94.17,253.55,102.42,253.41,111.07Z"/>
      <path d="M467.05,1838.36v22.47c18.77,1,37.58-.24,56.85.75v20.25c-8.11,2.27-72.67,2.45-82.33.19a64.51,64.51,0,0,1-.81-7.39q-.09-45.45,0-90.89c0-9.48.28-9.79,9.28-9.82q31.47-.12,62.93,0c9.18,0,9.34.3,9.46,9.63.05,3.6,0,7.2,0,12.19-18.61,1.21-36.46,0-55,.79v18.3c16.07,1,32.57-.18,48.33.64,1,1.19,1.77,1.65,1.85,2.2,2.89,19.13,2.23,19.9-16.51,19.91q-15.49,0-31,.1A22.91,22.91,0,0,0,467.05,1838.36Z"/>
      <path d="M1748.58,430.57v78.89h-21.34c-1.24-17.75.12-35.58-.8-53.85h-18.15v49.67h-21.78V456.34c-8.24-2.39-15.46-.88-23.94-1.36v55.69c-7.63,3.32-14.18,1.6-20.41,1.81-2.67-7.61-3.17-71-.89-81.78C1648.84,428.72,1737.67,428.42,1748.58,430.57Z"/>
      <path d="M225,1882.72h-27.8q-3.08-9.79-6.46-20.66H151.61c-2.08,7-4,13.63-6.15,20.74H118.58c10.49-37.83,24-73.21,39.27-108.37H185C200.78,1808.55,213.59,1844.31,225,1882.72Zm-42.16-44.18c-2.47-10.73-6.54-20.47-11.93-32l-12.14,32Z"/>
      <path d="M1661.56,790l-20.93-6.56V756.82c37.77,10.45,73.2,23.9,108.12,39.22v27.32c-34.7,15.42-70.14,29-108,39.39V835.21l20.82-6.46Zm23.18,31.36c10.63-3.56,20.66-6.6,31.64-12.24-11.64-4.72-21-9.2-31.64-11.36Z"/>
      <path d="M1661.66,1316.85v-38.66l-20.87-6.71v-26.74A828.41,828.41,0,0,1,1748.6,1284v27.43a797.4,797.4,0,0,1-106.81,39.23c-3.06-9.07-1.74-17.28-1.29-25.36.07-1.22,2.58-2.78,4.24-3.35C1650.05,1320.09,1655.5,1318.66,1661.66,1316.85ZM1685,1285v24.18c10.69-3.31,20.49-6.52,31.65-12.21Z"/>
      <path d="M1322.4,463.78q31.29.27,62.57.56c3.55,0,7.11.3,11.44.49v73l.27-.26H1323.3c-.22-25.14-.45-49.56-.67-74Z"/>
      <path d="M1176.44,317.88h73.18c.3,25.21.59,49.61.88,74l.19-.25-74-.68V317.61Z"/>
      <path d="M294.71,1493.62H221.25c-1.18-25.28-.27-49.67-.57-74l-.26.27c12.26,0,24.52-.06,36.78,0s24.24.17,37.24.27v73.77Z"/>
      <path d="M146.58,537.87q.27-30.79.55-61.59c0-3.55.3-7.09.5-11.61l73-.85-.25-.27v74h-74Z"/>
      <path d="M294.72,392V317.92h74l-.31-.32c-.23,24.1-.46,48.21-.7,73.38l-73.32.64Z"/>
      <path d="M1250.46,1493.63l-.48,60.61c0,3.62,0,7.24,0,12.1-4,.31-7.5.79-11,.8-17.23.08-34.46,0-51.69.06-3.63,0-7.26.33-10.9.51l.29.21v-74h74Z"/>
      <path d="M220.68,1419.58q-34.26.18-68.53.32c-1.24,0-2.49-.54-4.68-1q-.43-36.7-.87-73.26l-.17.21,74,.76v73.28Z"/>
      <path d="M1396.38,1345.53v72.41c-7,2.58-47.75,3.44-74.08,1.63l.37.3c.2-24.11.41-48.22.62-73.62,4.61,0,8.15,0,11.69,0q30.86-.18,61.71-.4Z"/>
      <path d="M368.69,1567.7q-31.28-.27-62.55-.54c-3.55,0-7.1-.32-11.43-.52v-73l-.27.25h73.61c0,4.26,0,7.8,0,11.34q.21,31.32.44,62.65Z"/>
      <path d="M1322.3,1419.57a62.82,62.82,0,0,1,1,7.79q.12,28.83,0,57.65c0,2.27-.32,4.55-.53,7.34-7.89,2.41-15.83,1-23.61,1.19-8.27.25-16.56,0-24.84.06l-23.86,0,.29.26a25.19,25.19,0,0,1-.93-4.84q-.09-32.35,0-64.69c0-1.22.67-2.44,1.26-4.49h71.59Z"/>
      <path d="M220.66,463.82V392.14c2.87-.49,4.75-1.08,6.62-1.09q30.81-.1,61.62,0a36.73,36.73,0,0,1,5.82.94l-.29-.36q-.23,35.25-.47,70.51c0,.26-.38.53-.61.77s-.48.44-1.32,1.18c-1.93.13-4.54.45-7.16.46q-27.83.06-55.65,0a79.86,79.86,0,0,1-8.81-1Z"/>
      <path d="M1250.5,391.9c6.29-.31,12.58-.82,18.87-.88,14.32-.13,28.65-.07,43,0,3.24,0,6.47.36,9.2.52.78,1.35,1.38,1.9,1.38,2.46q.19,33.47.24,66.93a11.15,11.15,0,0,1-.77,2.86l.23-.17a27.25,27.25,0,0,1-4.83.87q-30.83.11-61.65,0c-1.87,0-3.73-.62-6.43-1.1V453.17c0-16.58-.06-33.15,0-49.72,0-3.94.6-7.87.92-11.8Z"/>
      <path d="M331.58,2.7h29.18c2.95,6.31,6,13.27,9.44,20S377.44,36.11,381.75,44C391.43,30.44,396.68,16.12,403,2c9.1.11,17.91-.8,27.91.82-1.43,3.91-2.08,6.75-3.42,9.21-9,16.31-17.7,32.79-27.38,48.68C396.24,67,394.24,73,394.51,80.23c.38,9.9.1,19.82.1,28.92-1.66,1.18-2.16,1.83-2.73,1.89-23.16,2.63-23.77,2.61-22.94-20.37.53-14.51-2.36-26.86-11-38.95s-14.87-25.93-22-39.06C334.46,10.11,333.53,7.3,331.58,2.7Z"/>
      <path d="M647.28,1774.62h28.06l21.16,41.75c9.85-13.91,15.14-28.08,21.31-42h27.6c-1.28,4.12-1.79,7.63-3.38,10.54-9,16.31-17.88,32.66-27.47,48.59-3.26,5.41-5,10.56-4.81,16.79.29,10.56.08,21.13.08,32.49h-24.9c-.31-3.31-.86-6.78-.91-10.26-.17-10,1.85-20.52-.75-29.79s-9.92-17-14.83-25.69c-6.08-10.69-11.9-21.53-17.63-32.41C649.37,1781.85,648.69,1778.7,647.28,1774.62Z"/>
      <path d="M32,24.39H1.18V3.85c7-2.32,69.36-3.12,86-1.12C90.36,9.16,88.7,16,88.39,23.06c-9.78,3.83-20.06-.27-30.46,2.93-.33,28.11.15,56.28-.28,85.59H33.5C30.71,101.47,32.31,92.16,32,83,31.75,73.34,32,63.67,32,54Z"/>
      <path d="M1726.23,858.38h21c2.33,7.6,2.68,76.39.37,87h-20.43V915.67c-4.55-.27-8-.64-11.5-.65-21.3,0-42.59,0-63.88-.06-3.56,0-7.12-.39-11.23-.64V890.27c9.51-2.17,18.79-.84,28-1.07,9.65-.24,19.3-.05,29-.05h28.76Z"/>
      <path d="M1640.59,378.24V353.33c14.72-.38,28.9-.13,43.08-.17,13.9-.05,27.8,0,42.69,0V323.61c7.59-3.15,14.35-1.74,21-1.36,2.33,8.38,2.48,77.61.17,87.2h-20.41V379.63c-4.57-.25-8.07-.6-11.57-.61-21.29,0-42.58,0-63.87-.06C1648.09,379,1644.55,378.51,1640.59,378.24Z"/>
      <path d="M268.61,1861h51.45v21.28c-2.21.42-4.39,1.17-6.57,1.18q-30.93.13-61.85,0c-8.47,0-8.87-.46-8.89-9.2q-.1-45.88,0-91.77c0-8,.58-8.45,8.47-8.62,5.24-.12,10.49,0,16.06,0,2.45,10.12,1,19.39,1.27,28.55.26,9.63.06,19.28.06,28.93Z"/>
      <path d="M368.21,1861h50.46c1.92,8,2.26,14.73-.18,22H344c-2.55-7.56-3-97.28-.55-108.29h23.7C368.77,1802.73,367.09,1830.88,368.21,1861Z"/>
      <path d="M1662.59,1445.49c-7.83,2.58-14.54,2.35-21.92.39v-74.69c7-2.45,91.87-3.28,107-1,2.84,7.54,1,15.34,1.12,24.21-14.93,1.32-29.17.45-43.37.61-13.92.15-27.84,0-42.88,0Z"/>
      <path d="M1748.59,164.79v22.87c-7.44,2.32-95,2.87-107.31.73-2.61-7.53-.85-15.34-1-22.88C1648.06,163.33,1734.69,162.77,1748.59,164.79Z"/>
      <path d="M1748.58,964.81v22.86c-7.46,2.31-95.26,2.83-107.32.71-2.42-7.54-1.27-15.33-.64-23C1648.09,963.33,1735,962.8,1748.58,964.81Z"/>
      <path d="M1289.7,703l79.78,79.8-39.64,39.7,39.69,40.11-39.69,39.73,39.87,39.92L1330,982.16l39.69,39.75L1330,1061.6l39.26,39.63c-26.14,27-52.87,52.77-79.62,80.22,13.33,12.56,26.16,24.63,38.63,36.36-4.51,8.13-259.57,264.57-278.63,280.62-6.13-6.12-12.3-12.44-18.65-18.57s-13.09-12.31-18.65-17.52c0-2.26,0-2.59,0-2.92a2.43,2.43,0,0,1,.26-.93,13.9,13.9,0,0,1,1.14-1.62,18.79,18.79,0,0,1,1.36-1.46l272.75-273.06a11.34,11.34,0,0,0,.88-2l-38.76-39.1,79.54-79.58-39.68-39.78,39.67-39.8-39.83-39.9,39.73-39.88-39.76-39.81,39.6-40c-26.59-26.63-52.84-52.94-79.72-79.87l39.7-39.78L1012.19,425.82l39.06-39c5.14,2.67,266.4,262.62,277.45,276.78Z"/>
      <path d="M175.16,780.71l78.57-78.14-38.22-38.29L494.35,385.56l38.31,38.1c26.62-26.62,52.66-52.65,79.6-79.57l40,39.82c13.37-13.33,26.23-26.15,39.79-39.65l39.91,39.83,38.56-38.32,38.64,38.73-38.54,38.37L731.9,384.66l-39.74,39.57-39.94-39.89-79.53,79.43c-13.63-12.77-26.06-26.08-38.17-37.72L256.11,704.55l36.15,36.21-78.65,78.43C202,807.51,189.08,794.64,175.16,780.71Z"/>
      <path d="M216.84,1221.88l37.76-38.39L530.89,1459.8c-2.68,5-25.06,28.25-37.1,38C487.51,1494.31,222.65,1230.17,216.84,1221.88Z"/>
      <path d="M174.6,1021.64l39.57-40-39.71-39.87,39.94-40.11-39.56-37c4.19-8.07,25.77-30.53,38.66-41.11,6.58,3.66,33.8,30.48,39.78,39.44l-38.63,39,39.73,39.86c-13.34,13.41-26.13,26.26-39.66,39.84l39.43,39.54c-6,7.55-13.08,13.53-19.38,20.17L215.25,1062C201.23,1048.53,188.66,1035.45,174.6,1021.64Z"/>
      <path d="M571.59,1420.62l78.08,78c-12,12.06-24.81,24.91-38,38.2-4.32-2.38-67.1-64.12-78.19-78Z"/>
      <path d="M1010.12,424.35l-39.46,39.46c-26-25.87-52.17-52.14-77.54-77.51,13.22-13.2,26-26,39.23-39.2C937,349.77,998.66,410.44,1010.12,424.35Z"/>
      <path d="M177.54,1100.17l36.38-36.24,78.86,78.86c-4.74,5.82-11.76,11.85-18.09,18.5l-17.63,18.52Z"/>
      <path d="M971.51,1422.86l37.43,37.49c-2.69,4.75-67,69.87-76.31,76.9L895,1499.32Z"/>
      <path d="M693.93,1538.17l-38.33-38.61,38.49-38.36,38.34,38.14L771,1461c6.72,3.61,32.62,28.84,39.24,37.79L771,1538.32l-38.6-38.48Z"/>
      <path d="M889.21,1499.71l-37.06,37.16-37.21-37,37.21-37Z"/>
      <path d="M851.63,346.53l37,37.1L850.84,421.5l-36.77-37Z"/>
    </g>
  </g>
</svg>